<?xml version="1.0" encoding="UTF-8"?>
<!DOCTYPE svg PUBLIC "-//W3C//DTD SVG 1.1//EN" "http://www.w3.org/Graphics/SVG/1.1/DTD/svg11.dtd">
<!-- Creator: CorelDRAW X5 -->
<svg xmlns="http://www.w3.org/2000/svg" xml:space="preserve" width="130mm" height="163mm" style="shape-rendering:geometricPrecision; text-rendering:geometricPrecision; image-rendering:optimizeQuality; fill-rule:evenodd; clip-rule:evenodd"
viewBox="0 0 13000 16300"
 xmlns:xlink="http://www.w3.org/1999/xlink">
 <defs>
  <style type="text/css">
   <![CDATA[
    .fil6 {fill:none;fill-rule:nonzero}
    .fil4 {fill:#34548A}
    .fil0 {fill:#373435}
    .fil2 {fill:#D7CC75}
    .fil3 {fill:#E6E7E8}
    .fil1 {fill:#FFF212}
    .fil5 {fill:#373435;fill-rule:nonzero}
   ]]>
  </style>
 </defs>
 <g id="Layer_x0020_1">
  <metadata id="CorelCorpID_0Corel-Layer"/>
  <g id="_391327144">
   <path class="fil0" d="M6317 1393l-16 20 -15 28 -10 31 -3 33 3 33 10 31 15 28 19 23 -17 13 -21 24 -16 28 -11 32 -4 34 4 34 11 32 16 28 21 24 8 6 -1 1 -26 20 -22 25 -17 29 -11 33 -4 35 4 35 11 33 17 29 22 25 26 20 0 0 -15 10 -14 11 -13 12 -12 13 -10 14 -9 15 -7 16 -6 17 -4 18 -3 18 -1 19 1 19 3 18 4 18 6 17 7 16 9 15 10 14 12 13 13 12 0 0 -3 2 -14 11 -13 12 -12 13 -11 14 -9 15 -8 16 -6 17 -5 18 -3 19 -1 19 1 19 3 19 5 18 6 17 8 16 9 15 11 14 12 13 13 12 2 1 -10 6 -15 11 -14 12 -13 13 -12 14 -10 16 -9 17 -7 18 -5 18 -3 19 -1 20 1 20 3 19 5 19 7 18 9 17 10 16 12 14 12 12 -4 2 -11 7 -8 -7 -7 -7 -7 -7 -7 -7 -7 -7 -7 -7 -7 -7 -7 -7 -7 -7 -7 -7 -7 -7 -7 -7 -2 -2 21 -1 -69 -122 -14 -25 -14 -25 -15 -25 -15 -25 -15 -24 -15 -24 -15 -24 -15 -24 -15 -24 -16 -23 -16 -23 -16 -23 -16 -23 -16 -23 -16 -23 -16 -22 -17 -22 -17 -22 -17 -22 -17 -22 -17 -21 -17 -21 -18 -21 -18 -21 -18 -20 -18 -20 -18 -20 -19 -20 -19 -20 -19 -19 -55 -55 -7 -49 -44 -23 -12 -6 -12 -6 -12 -6 -11 -6 -14 -14 1 7 -25 -13 -12 -6 -24 -13 -12 -6 -12 -6 -144 -77 1 25 -4 -8 -11 -18 -12 -18 -12 -17 -13 -17 -13 -17 -14 -16 -14 -16 -15 -15 -15 -15 -16 -15 -16 -14 -16 -14 -17 -14 -1 -1 31 7 16 4 48 11 16 4 141 32 36 -25 11 -8 11 -8 11 -8 11 -8 11 -8 11 -8 11 -8 11 -8 11 -8 11 -8 11 -8 11 -8 33 -23 11 -8 11 -8 11 -8 11 -8 11 -8 33 -23 11 -8 11 -8 11 -8 11 -8 11 -8 250 -175 -288 28 -23 2 -23 1 -23 1 -23 0 -23 -1 -22 -1 -22 -2 -22 -2 -22 -3 -22 -3 -22 -3 -21 -4 -21 -4 -21 -5 -21 -5 -21 -6 -21 -6 -21 -7 -21 -7 -21 -7 -20 -8 -20 -8 -20 -9 -20 -9 -20 -9 -20 -10 -20 -10 -20 -10 -20 -11 -20 -11 -24 -14 -81 -33 -75 -29 -73 -27 -72 -24 -70 -22 -68 -20 -66 -17 -65 -15 -63 -13 -62 -11 -60 -9 -59 -7 -57 -5 -56 -4 -55 -2 -54 0 -52 1 -51 3 -50 4 -49 5 -48 6 -47 8 -46 9 -46 10 -45 10 -44 11 -43 12 -43 13 -42 13 -42 14 -41 14 -108 38 30 78 12 31 0 0 -15 -5 -21 -4 -21 -2 -21 1 -20 4 -19 7 -18 10 -16 13 -14 15 -11 17 -8 18 -4 14 -25 0 -27 0 -26 0 -26 1 -26 1 -25 1 -25 2 -25 2 -25 3 -24 3 -24 3 -23 4 -23 4 -23 5 -22 5 -22 6 -22 6 -21 7 -21 7 -20 8 -20 9 -19 9 -19 10 -18 11 -18 11 -17 12 -16 13 -16 14 -15 14 -14 15 -14 16 -17 22 -10 23 -7 18 -5 18 -4 19 -3 19 -2 19 -1 19 0 20 2 20 3 20 4 20 5 20 6 20 8 20 9 21 10 21 11 21 12 21 14 21 15 21 16 21 17 21 18 22 20 22 21 22 22 22 23 22 25 23 26 23 27 23 29 23 91 72 55 -90 14 -19 15 -17 17 -15 18 -14 19 -12 21 -10 22 -9 23 -7 24 -6 26 -4 27 -2 28 0 29 1 30 3 30 5 31 7 32 9 32 11 32 13 32 15 33 17 33 19 32 21 32 23 32 25 32 27 31 29 30 32 30 34 29 36 32 43 16 16 13 13 13 13 13 13 13 13 13 13 13 13 13 12 13 12 13 12 13 12 12 12 12 12 8 9 -67 -41 -29 -17 -29 -16 -30 -15 -30 -14 -30 -14 -31 -13 -31 -12 -31 -11 -32 -10 -32 -10 -32 -9 -33 -8 -33 -7 -33 -7 -34 -6 -34 -5 -34 -4 -34 -4 -35 -3 -35 -2 -35 -2 -36 -1 -36 0 -36 1 -37 1 -37 2 -37 3 -37 3 -38 4 -38 5 -44 6 -19 6 -12 4 -12 3 -12 3 -12 2 -12 2 -12 2 -11 1 -11 1 -11 0 -11 0 -11 0 -11 0 -11 -1 -11 -1 -11 -1 -11 -2 -11 -2 -11 -2 -11 -2 -11 -3 -11 -3 -11 -3 -11 -3 -11 -3 -11 -4 -12 -4 -12 -4 -12 -4 -12 -4 -12 -4 -260 -98 186 223 17 19 17 19 18 19 18 18 19 18 19 17 20 16 20 16 21 15 21 15 22 14 22 14 23 13 23 12 24 12 24 11 25 10 26 9 26 9 27 8 27 7 28 6 28 6 29 5 29 4 30 3 30 2 31 2 32 1 32 0 29 -1 22 1 25 0 25 0 24 -1 24 -2 23 -2 23 -3 23 -3 23 -4 22 -4 22 -4 22 -5 14 -3 -15 11 -21 18 -18 19 -15 20 -13 20 -11 20 -10 19 -9 19 -8 18 -103 232 219 -142 20 -12 21 -11 21 -10 21 -9 22 -8 22 -7 23 -7 23 -6 24 -5 24 -4 24 -4 25 -3 25 -2 25 -2 26 -1 26 -1 26 0 27 0 27 1 27 1 27 1 28 2 28 2 28 2 28 2 28 3 29 3 29 3 29 3 29 3 31 3 26 41 10 15 10 15 9 15 9 15 9 15 9 15 9 15 9 15 9 15 9 15 9 15 9 15 9 15 8 15 11 19 11 20 4 8 4 8 8 15 4 8 4 8 8 14 4 9 4 8 8 15 4 8 4 8 5 11 11 21 7 13 6 13 6 13 6 13 6 13 6 13 10 22 10 23 4 8 4 8 4 8 4 8 4 8 4 8 3 8 3 8 3 8 3 8 3 8 3 8 3 8 3 8 7 16 7 18 5 12 5 12 5 12 5 12 4 12 4 12 4 12 4 12 4 12 4 12 4 12 4 12 4 12 4 12 4 12 4 12 4 12 4 12 4 12 4 12 4 12 4 12 4 12 4 12 4 12 4 12 3 12 3 12 3 12 3 12 28 105 -1 14 -1 27 0 26 0 26 1 26 1 26 2 26 2 25 3 25 3 25 4 25 4 25 5 24 5 24 3 14 -4 -5 -63 141 -14 29 -14 28 -14 27 -14 26 -14 25 -14 24 -15 23 -15 22 -15 21 -15 20 -15 19 -15 18 -15 17 -15 16 -15 15 -15 14 -15 13 -15 12 -16 11 -16 11 -16 10 -16 9 -16 8 -2 1 -231 -44 -51 -13 -47 -15 -43 -17 -40 -19 -36 -21 -32 -22 -29 -24 -26 -25 -23 -26 -20 -27 -18 -28 -15 -29 -13 -30 -10 -31 -8 -32 -6 -32 -3 -33 -1 -33 1 -33 3 -34 5 -33 7 -33 9 -33 11 -32 12 -32 14 -31 16 -30 17 -29 18 -28 20 -26 54 -64 -64 -112 -41 -68 -42 -65 -43 -62 -44 -59 -45 -56 -46 -53 -47 -51 -48 -48 -49 -45 -50 -42 -50 -40 -51 -37 -52 -34 -53 -32 -54 -29 -55 -26 -55 -24 -56 -21 -57 -19 -58 -16 -58 -13 -59 -11 -59 -9 -60 -6 -61 -4 -61 -1 -62 1 -62 3 -63 5 -63 8 -68 10 -53 16 -49 16 -48 17 -47 18 -46 19 -45 20 -44 22 -43 23 -42 24 -42 25 -41 26 -40 27 -39 29 -38 30 -37 31 -36 32 -34 34 -33 35 -32 36 -31 37 -30 39 -29 40 -28 41 -26 43 -25 44 -24 45 -23 47 -21 48 -20 49 -19 51 -18 52 -18 57 -8 47 -7 41 -7 41 -8 40 -8 40 -8 39 -9 39 -9 38 -9 38 -10 37 -10 37 -10 36 -10 36 -11 35 -11 35 -11 34 -12 34 -12 33 -12 33 -13 32 -13 32 -13 31 -13 31 -14 30 -14 30 -14 29 -15 29 -15 28 -15 28 -16 27 -16 27 -87 143 169 -12 35 -4 32 -5 -3 23 -4 28 -3 28 -3 28 -3 28 -2 28 -2 28 -1 28 -1 28 -1 28 0 28 0 28 0 28 1 28 1 28 1 28 2 28 2 28 3 28 3 28 3 28 4 28 4 28 4 28 5 28 5 28 5 28 6 28 6 28 7 28 7 28 7 29 10 34 9 32 8 32 8 32 7 32 7 32 7 32 6 32 6 32 5 32 5 32 4 32 4 32 3 32 3 32 2 32 2 32 2 32 1 32 1 32 0 31 0 31 -1 31 -1 31 -1 31 -2 31 -2 31 -3 31 -3 31 -3 31 -4 31 -24 175 123 -73 5 41 6 51 6 51 6 51 6 51 7 51 7 50 7 50 7 50 8 50 8 50 8 50 8 50 9 50 9 50 10 50 10 50 10 50 11 50 11 50 12 49 12 49 12 49 13 49 13 49 14 49 14 49 15 49 16 48 16 48 17 48 7 20 7 19 7 19 7 19 7 19 7 19 7 19 7 18 7 18 7 18 7 18 8 18 8 18 8 18 8 17 45 99 2 5 8 17 8 17 8 17 8 17 8 16 8 16 8 16 8 16 5 10 0 0 20 39 55 109 1 -1 2 3 11 22 5 9 0 0 20 37 60 115 0 0 2 4 5 10 4 8 15 29 17 34 8 15 14 27 13 27 13 27 13 27 13 27 13 27 13 27 12 27 12 27 12 27 12 27 12 27 11 28 11 28 11 28 11 28 10 28 10 29 10 29 10 29 9 30 9 30 9 30 8 31 8 31 8 31 7 32 7 32 7 33 47 248 85 -183 21 0 49 79 71 111 72 109 73 108 74 106 75 105 76 103 77 102 78 100 79 99 80 97 81 96 82 94 83 93 84 91 85 90 86 88 87 86 88 85 89 83 90 82 92 80 93 78 94 76 95 75 96 73 97 71 99 70 100 68 101 66 102 64 107 65 59 25 53 23 51 23 50 23 48 23 47 23 46 23 44 22 43 22 41 22 40 22 38 22 37 22 35 22 34 22 32 22 31 22 29 21 28 21 26 21 25 21 23 21 21 21 20 20 18 20 17 20 15 20 14 19 12 19 11 19 9 18 99 228 50 -264 7 -41 5 -40 4 -39 3 -38 2 -37 0 -36 -1 -35 -2 -35 -3 -34 -4 -33 -5 -32 -6 -31 -7 -31 -8 -30 -9 -29 -9 -28 -10 -28 -11 -27 -12 -26 -12 -26 -13 -25 -13 -25 -14 -24 -14 -23 -15 -23 -15 -23 -15 -22 -16 -22 -16 -21 -16 -21 -82 -104 -4 8 2 -23 2 -28 1 -28 1 -28 1 -27 1 -27 0 -27 0 -27 0 -27 -1 -26 -1 -26 -1 -26 -1 -26 -2 -25 -2 -25 -2 -25 -3 -25 -3 -24 -3 -24 -4 -24 -4 -24 -4 -23 -5 -23 6 7 48 60 48 59 49 59 49 59 50 58 50 58 51 57c142,159 109,168 108,367l0 86 1 86 1 86 2 85 2 85 3 84 4 84 4 83 5 83 6 82 7 81 8 81 9 80 10 79 12 78 13 77 14 77 15 76 17 75 18 74 20 73 21 72 23 70 25 69 27 68 28 67 30 65 32 64 34 63 36 61 97 149 97 -149 36 -61 34 -63 32 -64 30 -65 28 -67 27 -68 25 -69 23 -70 21 -72 20 -73 18 -74 17 -75 15 -76 14 -77 13 -77 12 -78 10 -79 9 -80 8 -81 7 -81 6 -82 5 -83 4 -83 4 -84 3 -84 2 -85 2 -85 1 -86c16,-277 -45,-386 109,-539l51 -57 50 -58 50 -58 49 -59 49 -59 48 -59 48 -60 6 -7 -5 23 -4 23 -4 24 -4 24 -3 24 -3 24 -3 25 -2 25 -2 25 -2 25 -1 26 -1 26 -1 26 -1 26 0 27 0 27 0 27 1 27 1 27 1 28 1 28 2 28 2 23 -4 -8 -82 104 -16 21 -16 21 -16 22 -15 22 -15 23 -15 23 -14 23 -14 24 -13 25 -13 25 -12 26 -12 26 -11 27 -10 28 -9 28 -9 29 -8 30 -7 31 -6 31 -5 32 -4 33 -3 34 -2 35 -1 35 0 36 2 37 3 38 4 39 5 40 7 41 50 264 99 -228 9 -18 11 -19 12 -19 14 -19 15 -20 17 -20 18 -20 20 -20 21 -21 23 -21 25 -21 26 -21 28 -21 29 -21 31 -22 32 -22 34 -22 35 -22 37 -22 38 -22 40 -22 41 -22 43 -22 44 -22 46 -23 47 -23 48 -23 50 -23 51 -23 53 -23 59 -25 107 -65 102 -64 101 -66 100 -68 99 -70 97 -71 96 -73 95 -75 94 -76 93 -78 92 -80 90 -82 89 -83 88 -85 87 -86 86 -88 85 -90 84 -91 83 -93 82 -94 81 -96 80 -97 79 -99 78 -100 77 -102 76 -103 75 -105 74 -106 73 -108 72 -109 71 -111 49 -79 21 0 85 183 47 -248 7 -33 7 -32 7 -32 8 -31 8 -31 8 -31 9 -30 9 -30 9 -30 10 -29 10 -29 10 -29 10 -28 11 -28 11 -28 11 -28 11 -28 12 -27 12 -27 12 -27 12 -27 12 -27 13 -27 13 -27 13 -27 13 -27 13 -27 13 -27 14 -27 8 -15 17 -34 15 -29 4 -8 5 -10 2 -4 0 0 60 -115 20 -37 0 0 5 -9 11 -22 2 -3 1 1 55 -109 20 -39 0 0 5 -10 8 -16 8 -16 8 -16 8 -16 8 -17 8 -17 8 -17 8 -17 8 -17 8 -17 8 -17 8 -17 8 -17 8 -17 8 -18 8 -18 8 -18 8 -18 7 -18 7 -18 7 -18 7 -18 7 -19 7 -19 7 -19 7 -19 7 -19 7 -19 7 -20 17 -48 16 -48 16 -48 15 -49 14 -49 14 -49 13 -49 13 -49 12 -49 12 -49 12 -49 11 -50 11 -50 10 -50 10 -50 10 -50 9 -50 9 -50 8 -50 8 -50 8 -50 8 -50 7 -50 7 -50 7 -50 7 -51 6 -51 6 -51 6 -51 6 -51 5 -41 123 73 -24 -175 -4 -31 -3 -31 -3 -31 -3 -31 -2 -31 -2 -31 -1 -31 -1 -31 -1 -31 0 -31 0 -31 1 -32 1 -32 2 -32 2 -32 2 -32 3 -32 3 -32 4 -32 4 -32 5 -32 5 -32 6 -32 6 -32 7 -32 7 -32 7 -32 8 -32 8 -32 9 -32 10 -34 7 -29 7 -28 7 -28 6 -28 6 -28 5 -28 5 -28 5 -28 4 -28 4 -28 4 -28 3 -28 3 -28 3 -28 2 -28 2 -28 1 -28 1 -28 1 -28 0 -28 0 -28 0 -28 -1 -28 -1 -28 -1 -28 -2 -28 -2 -28 -3 -28 -3 -28 -3 -28 -4 -28 -3 -23 32 5 35 4 169 12 -87 -143 -16 -27 -16 -27 -15 -28 -15 -28 -15 -29 -14 -29 -14 -30 -14 -30 -13 -31 -13 -31 -13 -32 -13 -32 -12 -33 -12 -33 -12 -34 -11 -34 -11 -35 -11 -35 -10 -36 -10 -36 -10 -37 -10 -37 -9 -38 -9 -38 -9 -39 -8 -39 -8 -40 -8 -40 -7 -41 -7 -41 -8 -47 -18 -57 -18 -52 -19 -51 -20 -49 -21 -48 -23 -47 -24 -45 -25 -44 -26 -43 -28 -41 -29 -40 -30 -39 -31 -37 -32 -36 -33 -35 -34 -34 -36 -32 -37 -31 -38 -30 -39 -29 -40 -27 -41 -26 -42 -25 -42 -24 -43 -23 -44 -22 -45 -20 -46 -19 -47 -18 -48 -17 -49 -16 -53 -16 -68 -10 -63 -8 -63 -5 -62 -3 -62 -1 -61 1 -61 4 -60 6 -59 9 -59 11 -58 13 -58 16 -57 19 -56 21 -55 24 -55 26 -54 29 -53 32 -52 34 -51 37 -50 40 -50 42 -49 45 -48 48 -47 51 -46 53 -45 56 -44 59 -43 62 -42 65 -41 68 -64 112 54 64 20 26 18 28 17 29 16 30 14 31 12 32 11 32 9 33 7 33 5 33 3 34 1 33 -1 33 -3 33 -6 32 -8 32 -10 31 -13 30 -15 29 -18 28 -20 27 -23 26 -26 25 -29 24 -32 22 -36 21 -40 19 -43 17 -47 15 -51 13 -231 44 -2 -1 -16 -8 -16 -9 -16 -10 -16 -11 -16 -11 -15 -12 -15 -13 -15 -14 -15 -15 -15 -16 -15 -17 -15 -18 -15 -19 -15 -20 -15 -21 -15 -22 -15 -23 -14 -24 -14 -25 -14 -26 -14 -27 -14 -28 -1 -2 -39 -85 -37 -83 -4 5 3 -14 5 -24 5 -24 4 -25 4 -25 3 -25 3 -25 2 -25 2 -26 1 -26 1 -26 0 -26 0 -26 -1 -27 -1 -14 28 -105 3 -12 3 -12 3 -12 3 -12 4 -12 4 -12 4 -12 4 -12 4 -12 4 -12 4 -12 4 -12 4 -12 4 -12 4 -12 4 -12 4 -12 4 -12 4 -12 4 -12 4 -12 4 -12 4 -12 4 -12 4 -12 4 -12 5 -12 5 -12 5 -12 5 -12 7 -18 7 -16 3 -8 3 -8 3 -8 3 -8 3 -8 3 -8 3 -8 3 -8 4 -8 4 -8 4 -8 4 -8 4 -8 4 -8 10 -23 10 -22 6 -13 6 -13 6 -13 6 -13 6 -13 7 -13 11 -21 5 -11 4 -8 4 -8 8 -15 4 -8 4 -9 8 -14 4 -8 4 -8 8 -15 4 -8 4 -8 11 -20 11 -19 8 -15 9 -15 9 -15 9 -15 9 -15 9 -15 9 -15 9 -15 9 -15 9 -15 9 -15 9 -15 10 -15 10 -15 26 -41 31 -3 29 -3 29 -3 29 -3 29 -3 28 -3 28 -2 28 -2 28 -2 28 -2 27 -1 27 -1 27 -1 27 0 26 0 26 1 26 1 25 2 25 2 25 3 24 4 24 4 24 5 23 6 23 7 22 7 22 8 21 9 21 10 21 11 20 12 219 142 -103 -232 -8 -18 -9 -19 -10 -19 -11 -20 -13 -20 -15 -20 -18 -19 -21 -18 -15 -11 14 3 22 5 22 4 22 4 23 4 23 3 23 3 23 2 24 2 24 1 25 0 25 0 22 -1 29 1 32 0 32 -1 31 -2 30 -2 30 -3 29 -4 29 -5 28 -6 28 -6 27 -7 27 -8 26 -9 26 -9 25 -10 24 -11 24 -12 23 -12 23 -13 22 -14 22 -14 21 -15 21 -15 20 -16 20 -16 19 -17 19 -18 18 -18 18 -19 17 -19 17 -19 186 -223 -260 98 -12 4 -12 4 -12 4 -12 4 -12 4 -11 4 -11 3 -11 3 -11 3 -11 3 -11 3 -11 2 -11 2 -11 2 -11 2 -11 1 -11 1 -11 1 -11 0 -11 0 -11 0 -11 0 -11 -1 -11 -1 -12 -2 -12 -2 -12 -2 -12 -3 -12 -3 -12 -4 -19 -6 -44 -6 -38 -5 -38 -4 -37 -3 -37 -3 -37 -2 -37 -1 -36 -1 -36 0 -36 1 -35 2 -35 2 -35 3 -34 4 -34 4 -34 5 -34 6 -33 7 -33 7 -33 8 -32 9 -32 10 -32 10 -31 11 -31 12 -31 13 -30 14 -30 14 -30 15 -29 16 -29 17 -67 41 8 -9 12 -12 12 -12 13 -12 13 -12 13 -12 13 -12 13 -13 13 -13 13 -13 13 -13 13 -13 13 -13 16 -16 32 -43 29 -36 30 -34 30 -32 31 -29 32 -27 32 -25 32 -23 32 -21 33 -19 33 -17 32 -15 32 -13 32 -11 32 -9 31 -7 30 -5 30 -3 29 -1 28 0 27 2 26 4 24 6 23 7 22 9 21 10 19 12 18 14 17 15 15 17 14 19 55 90 91 -72 29 -23 27 -23 26 -23 25 -23 23 -22 22 -22 21 -22 20 -22 18 -22 17 -21 16 -21 15 -21 14 -21 12 -21 11 -21 10 -21 9 -21 8 -20 6 -20 5 -20 4 -20 3 -20 2 -20 0 -20 -1 -19 -2 -19 -3 -19 -4 -19 -5 -18 -7 -18 -10 -23 -17 -22 -14 -16 -14 -15 -15 -14 -16 -14 -16 -13 -17 -12 -18 -11 -18 -11 -19 -10 -19 -9 -20 -9 -20 -8 -21 -7 -21 -7 -22 -6 -22 -6 -22 -5 -23 -5 -23 -4 -23 -4 -24 -3 -24 -3 -25 -3 -25 -2 -25 -2 -25 -1 -26 -1 -26 -1 -26 0 -27 0 -25 0 -4 -14 -8 -18 -11 -17 -14 -15 -16 -13 -18 -10 -19 -7 -20 -4 -21 -1 -21 2 -21 4 -15 5 0 0 12 -31 30 -78 -108 -38 -41 -14 -42 -14 -42 -13 -43 -13 -43 -12 -44 -11 -45 -10 -46 -10 -46 -9 -47 -8 -48 -6 -49 -5 -50 -4 -51 -3 -52 -1 -54 0 -55 2 -56 4 -57 5 -59 7 -60 9 -62 11 -63 13 -65 15 -66 17 -68 20 -70 22 -72 24 -73 27 -75 29 -81 33 -24 14 -20 11 -20 11 -20 10 -20 10 -20 10 -20 9 -20 9 -20 9 -20 8 -20 8 -21 7 -21 7 -21 7 -21 6 -21 6 -21 5 -21 5 -21 4 -21 4 -22 3 -22 3 -22 3 -22 2 -22 2 -22 1 -23 1 -23 0 -23 -1 -23 -1 -23 -2 -288 -28 250 175 11 8 11 8 11 8 11 8 11 8 33 23 11 8 11 8 11 8 11 8 11 8 33 23 11 8 11 8 11 8 11 8 11 8 11 8 11 8 11 8 11 8 11 8 11 8 11 8 36 25 141 -32 16 -4 48 -11 16 -4 31 -7 -1 1 -17 14 -16 14 -16 14 -16 15 -15 15 -15 15 -14 16 -14 16 -13 17 -13 17 -12 17 -12 18 -11 18 -4 8 1 -25 -144 77 -12 6 -12 6 -24 13 -12 6 -25 13 1 -7 -14 14 -11 6 -12 6 -12 6 -12 6 -44 23 -7 49 -55 55 -19 19 -19 20 -19 20 -18 20 -18 20 -18 20 -18 21 -18 21 -17 21 -17 21 -17 22 -17 22 -17 22 -17 22 -16 22 -16 23 -16 23 -16 23 -16 23 -16 23 -16 23 -15 24 -15 24 -15 24 -15 24 -15 24 -15 25 -15 25 -14 25 -14 25 -6 11 -1 -4 -7 -18 -9 -17 -10 -16 -12 -14 -13 -13 -14 -12 -15 -11 -10 -6 2 -1 13 -12 12 -13 11 -14 9 -15 8 -16 6 -17 5 -18 3 -19 1 -19 -1 -19 -3 -19 -5 -18 -6 -17 -8 -16 -9 -15 -11 -14 -12 -13 -13 -12 -14 -11 -3 -2 0 0 13 -12 12 -13 10 -14 9 -15 7 -16 6 -17 4 -18 3 -18 1 -19 -1 -19 -3 -18 -4 -18 -6 -17 -7 -16 -9 -15 -10 -14 -12 -13 -13 -12 -14 -11 -15 -10 0 0 26 -20 22 -25 17 -29 11 -33 4 -35 -4 -35 -11 -33 -17 -29 -22 -25 -26 -20 -1 -1 8 -6 21 -24 16 -28 11 -32 4 -34 -4 -34 -11 -32 -16 -28 -21 -24 -17 -13 19 -23 15 -28 10 -31 3 -33 -3 -33 -10 -31 -15 -28 -13 -15 1 0 17 -5 17 -5 17 -5 17 -5 17 -5 17 -5 17 -4 17 -4 17 -4 17 -4 17 -4 17 -4 17 -4 17 -4 17 -4 17 -4 17 -4 17 -3 17 -3 17 -3 17 -3 17 -3 17 -3 17 -3 17 -3 17 -3 17 -3 17 -3 68 -11 10 -67 3 -17 2 -17 2 -17 2 -17 2 -17 1 -17 1 -17 1 -17 1 -17 0 -16 0 -16 0 -16 0 -16 0 -16 -1 -16 -1 -16 -1 -16 -1 -16 -1 -16 -2 -16 -2 -15 -2 -15 -2 -15 -2 -15 -2 -15 -3 -15 -3 -15 -3 -15 -3 -15 -3 -15 -25 -104 -58 33 -5 -13 -8 -19 -9 -19 -9 -19 -10 -18 -10 -18 -11 -18 -11 -17 -11 -17 -12 -16 -12 -16 -13 -15 -13 -15 -14 -15 -14 -14 -15 -13 -15 -13 -16 -13 -16 -12 -17 -11 -17 -11 -18 -10 -18 -10 -19 -9 -19 -9 -20 -8 -2 -1 18 -19 -440 -68 -440 68 18 19 -2 1 -20 8 -19 9 -19 9 -18 10 -18 10 -17 11 -17 11 -16 12 -16 13 -15 13 -15 13 -14 14 -14 15 -13 15 -13 15 -12 16 -12 16 -11 17 -11 17 -11 18 -10 18 -10 18 -9 19 -9 19 -8 19 -5 13 -58 -33 -25 104 -3 15 -3 15 -3 15 -3 15 -3 15 -2 15 -2 15 -2 15 -2 15 -2 15 -2 16 -1 16 -1 16 -1 16 -1 16 -1 16 0 16 0 16 0 16 0 16 0 16 1 17 1 17 1 17 1 17 2 17 2 17 2 17 2 17 3 17 10 67 68 11 17 3 17 3 17 3 17 3 17 3 17 3 17 3 17 3 17 3 17 3 17 3 17 4 17 4 17 4 17 4 17 4 17 4 17 4 17 4 17 4 17 4 17 4 17 5 17 5 17 5 17 5 17 5 3 1z"/>
   <path class="fil1" d="M4156 10188c-58,-134 -115,-268 -173,-402 -167,77 -306,173 -350,339 -31,239 -12,457 295,561 132,4 264,-36 396,-122 -18,-49 -42,-70 -72,-63l-9 -30 -12 8 -18 10 -18 9 -19 8 -19 8 -19 7 -20 5 -20 4 -20 3 -20 2 -20 1 -21 -1 -21 -2 -21 -4 -21 -5 -21 -7 -20 -8 -20 -10 -20 -12 -20 -13 -19 -15 -20 -18 -9 -11 -8 -11 -7 -11 -6 -12 -5 -12 -5 -13 -4 -13 -3 -13 -2 -14 -1 -14 0 -14 1 -14 3 -14 4 -14 5 -13 7 -13 8 -13 10 -12 11 -11 13 -10 14 -9 15 -8 17 -7 18 -5 19 -4 21 -3 22 -1 24 0 25 2 27 3 28 5 33 7 17 8 15 6 17 7 18 7 3 1 -4 -13zm526 1156c53,43 103,94 134,202l-14 6 -17 7 -15 5 -18 6 -29 17 -24 16 -22 16 -19 16 -17 16 -15 16 -13 16 -11 16 -10 16 -8 16 -6 16 -4 16 -2 16 -1 16 1 15 3 15 4 14 5 13 7 13 8 12 9 11 9 10 10 10 11 9 11 8 12 7 12 6 12 5 13 4 13 3 13 2 14 2 27 -1 24 -2 24 -4 23 -5 22 -7 21 -8 20 -9 19 -10 18 -11 17 -12 15 -13 14 -14 13 -15 12 -16 5 -7 13 19c8,4 14,8 20,13l14 22c6,19 2,44 -13,73 -202,159 -382,168 -539,25 -171,-300 -135,-518 177,-629zm-244 -453c-45,-142 -101,-229 -168,-260 -206,61 -352,151 -366,302 -15,351 283,682 771,356 -7,-43 -31,-64 -72,-63l-24 -49 -9 8 -14 11 -14 11 -15 10 -15 9 -16 9 -16 8 -16 7 -17 6 -17 5 -18 4 -18 4 -19 3 -19 2 -19 1 -20 0 -25 -1 -46 -21 -36 -22 -30 -25 -25 -27 -19 -28 -13 -29 -8 -30 -3 -29 2 -29 7 -27 11 -25 16 -23 20 -19 23 -15 26 -11 28 -5 16 -1 13 -1 13 -1 13 -1 13 -1 13 -1 14 -1 14 -1 14 -1 14 -1 14 -1 14 -1 14 -1 14 -1 6 0 -4 -9zm-784 -1700c-106,98 -154,206 -117,329 4,-110 47,-219 117,-329zm92 223c-86,92 -133,216 -141,373 41,-124 88,-248 141,-373zm-68 -828c-25,261 -79,509 -195,731 -114,-27 -216,-89 -316,-155 139,270 298,520 462,765 126,-65 253,-129 379,-194 -134,-382 -236,-765 -331,-1147zm-19 440c42,213 116,424 302,624 -147,-200 -233,-411 -302,-624zm-771 -7426c-18,-51 -54,-81 -94,-76 -45,-1 -68,52 -30,73 36,8 89,0 98,34 29,12 38,2 26,-30zm96 35c-38,-94 -109,-147 -182,-135 -85,1 -123,103 -51,140 68,12 168,-7 187,55 55,20 71,0 47,-59zm-793 833c130,50 263,86 416,34 397,-57 743,-7 1026,173 -287,4 -472,120 -721,106 -333,13 -558,-112 -721,-313zm-1676 2940c180,-290 305,-661 376,-1112 162,-555 533,-870 1047,-1021 660,-111 1220,128 1636,880 -257,286 -288,876 366,981 -681,20 -816,-485 -630,-1001 -402,-625 -1055,-613 -1351,-344 -316,249 -441,522 -539,799 -261,529 -562,802 -904,819zm2427 5410c-26,-39 -52,-79 -78,-118l-339 19 -6 22c17,27 34,53 51,79l371 -2zm-834 -52l6 0c736,1194 1628,2154 2725,2801 591,248 944,487 1037,718 89,-436 -49,-678 -219,-891 -17,32 -34,64 -52,96 -144,-243 -356,-419 -586,-577 -639,-441 -1095,-911 -1546,-1372 -192,-237 -368,-478 -531,-722l-340 50c18,27 36,55 54,82l368 -2 -336 49c26,38 52,75 78,113l372 -2 -339 49c20,28 40,55 60,83l372 -2 -338 49c26,35 52,70 78,104l369 -2 -334 49c19,24 37,48 56,71l375 -2 -337 49c25,31 50,61 75,92l363 -2 -325 47c27,31 53,62 81,93l363 -2 -323 47c29,33 59,66 89,98l369 -2 -326 48c28,30 57,60 86,89l367 -2 -322 47c27,27 55,54 83,81l361 -2 -312 45c27,24 55,47 83,70l377 -2 -322 47c30,24 61,49 92,73l361 -2 -306 45c31,24 62,47 94,71l364 -2 -306 45c40,29 80,59 120,88l364 -2 -305 44c54,39 109,78 163,117l332 -2 -278 40c41,29 81,58 121,88l347 -2 -291 42c52,38 104,76 155,115l356 -2 -301 44c47,36 94,73 140,110l309 39 -260 1c51,42 101,85 149,128l297 77 -253 -37c42,39 83,78 123,118l321 83 -280 -41c30,32 59,64 88,96l247 63 -212 -21c90,107 169,220 236,339 -76,-101 -158,-196 -243,-288l75 195 -113 -236c-39,-41 -79,-81 -120,-120l61 222 -100 -259c-51,-48 -104,-96 -157,-142l50 275 -92 -311c-47,-40 -95,-80 -144,-120l-1 313 -43 -348c-44,-35 -88,-70 -133,-104l-56 352 11 -387c-57,-44 -115,-87 -173,-130l-58 361 11 -395c-47,-35 -94,-69 -142,-104l-60 373 12 -408c-48,-35 -97,-70 -145,-106l-57 354 11 -387c-44,-32 -88,-65 -132,-97l-57 354 11 -388c-36,-27 -71,-53 -106,-80l-57 355 11 -390c-29,-23 -58,-45 -87,-68l-55 341 11 -376c-35,-28 -69,-56 -103,-84l-56 347 11 -385c-27,-26 -53,-53 -79,-79l-54 338 11 -382c-28,-29 -56,-59 -84,-88l-54 337 11 -383c-31,-34 -61,-68 -91,-102l-55 342 11 -393c-25,-29 -50,-59 -75,-89l-55 342 12 -395c-20,-25 -40,-50 -60,-75l-53 331 11 -385c-18,-24 -36,-47 -54,-71l-54 339 12 -396c-23,-31 -45,-62 -67,-93l-54 338 12 -399c-17,-24 -33,-48 -50,-73l-55 341 12 -405c-23,-35 -47,-71 -69,-107l-57 353 12 -423c-11,-18 -22,-36 -33,-53l-56 346 12 -418c-11,-19 -23,-39 -34,-58l-81 318 45 -380c-19,-34 -38,-67 -57,-101l-90 355 50 -422 3 0c-23,-43 -45,-85 -68,-128 26,43 52,86 78,129l387 32 -355 20c18,29 36,58 54,87l2 -14 380 32c-229,-353 -434,-711 -625,-1072 102,404 78,788 -129,1141zm1562 -162c-35,-42 -61,-89 -79,-138l-298 6c19,31 39,63 59,94l318 38zm202 291c15,-49 37,-95 66,-135 -120,-29 -206,-84 -265,-153l-291 5c21,32 42,64 64,96l337 41 -305 6c23,34 47,68 71,101l324 39zm-24 124c3,-41 11,-82 23,-122l-289 5c23,31 46,62 69,93l196 24zm4 120c-5,-33 -7,-66 -5,-100l-159 3c22,29 45,57 68,85l97 12zm31 111c-11,-25 -19,-51 -25,-78l-63 1c23,25 46,50 69,75l18 2zm484 278c2,-10 5,-21 8,-32 -133,13 -239,-9 -319,-53 19,18 37,36 56,54l256 31zm-17 122c2,-36 7,-72 15,-110l-205 4c33,32 67,64 101,96l89 11zm1 73c-1,-13 -1,-25 -1,-38l-39 1c13,13 27,25 40,37zm-1448 -1756c-182,39 -346,-149 -511,-323 486,953 997,1895 1933,2641 432,319 863,640 1243,1045 27,-299 12,-562 -64,-776 -127,-188 -253,-376 -380,-564 -104,79 -207,122 -301,135l281 34 -285 5c39,39 78,79 116,118l282 73 -241 -30c42,45 83,91 123,137l266 106 -231 -64c35,41 68,82 100,124l288 114 -255 -71c24,33 48,66 70,100l222 87 -194 -44c71,110 131,224 178,343 -59,-102 -123,-201 -192,-295l46 190 -77 -232c-32,-43 -64,-84 -97,-126l30 213 -62 -252c-42,-51 -85,-101 -129,-150l14 261 -48 -300c-39,-43 -79,-86 -119,-128l-38 291 2 -328c-37,-38 -74,-75 -111,-113l-94 320 56 -358 -23 -23c-52,-7 -100,-23 -143,-47l-76 258 44 -278c-50,-36 -92,-85 -122,-143l-83 282 55 -348c-5,-15 -9,-30 -13,-45 -35,-33 -70,-66 -105,-99l-95 322 56 -358c-37,-35 -74,-70 -111,-106l-95 322 57 -359c-30,-29 -60,-58 -89,-87l-95 323 57 -361c-25,-24 -49,-49 -73,-74l-91 310 55 -348c-29,-30 -57,-60 -86,-90l-93 315 56 -356c-22,-28 -43,-55 -64,-83l-90 308 56 -354c-23,-31 -45,-61 -67,-92l-90 306 56 -354c-25,-35 -49,-70 -73,-106l-92 311 57 -363c-20,-30 -40,-61 -59,-91l-92 311 58 -366c-16,-25 -31,-51 -46,-76l-89 301 56 -356c-14,-24 -28,-48 -42,-72l-91 308 58 -366c-17,-31 -34,-63 -51,-94l-90 307 58 -368c-13,-24 -25,-49 -38,-73l-91 310 59 -375c-18,-36 -35,-71 -52,-107l-94 320 44 -280zm44 -115l-2 5 7 0 342 41 -318 6c19,38 39,76 59,114l346 42 -321 6c15,28 30,56 46,84l346 42 -319 6c20,35 40,71 60,106l343 41 -315 6c14,24 29,49 43,73l327 39c-56,-159 -30,-343 25,-466 -234,-271 -408,-573 -573,-878 -9,311 -18,473 -95,733zm-1381 -156c28,53 55,105 82,157l152 -341c-11,-37 -20,-74 -29,-109l-206 293zm-92 -177c30,59 60,116 90,173l192 -361c-9,-44 -17,-88 -23,-130l-258 318zm-30 -2849c-160,319 -334,569 -528,718 58,539 137,1072 316,1577 72,204 156,383 241,551l210 -335 31 -74c-16,-41 -30,-80 -43,-119l-17 -9 -175 286 164 -367c-11,-37 -20,-74 -29,-109l-221 315 206 -386c-9,-44 -17,-88 -23,-130l-274 337c160,-255 201,-398 240,-435 -14,-35 -26,-70 -38,-104l-17 -9 -175 286 164 -367c-11,-37 -20,-74 -29,-109l-221 315 206 -386c-9,-44 -17,-88 -23,-130 -121,148 -150,185 -274,337l224 -357 31 -74c-16,-41 -30,-80 -43,-119l-17 -9 -175 286 164 -367c-11,-37 -20,-74 -29,-109l-221 315 206 -386c-9,-44 -17,-88 -23,-130l-274 337 262 -418c-4,-27 -7,-54 -10,-81 5,24 10,48 16,72l1 -2 342 335 -321 -238c8,35 17,70 26,105l350 300 -323 -203c12,41 24,83 37,125l314 244 -285 -154c14,41 28,83 43,125 279,223 78,77 316,311l-321 -238c8,35 17,70 27,105l350 300 -323 -203c12,41 24,83 37,125l314 244 -285 -154c8,24 16,49 25,74 46,11 118,130 343,350l-321 -238c8,35 17,70 26,105l350 300 -323 -203c12,41 24,83 37,125l314 244 -285 -154c14,41 28,83 43,125 279,223 78,77 316,311l-321 -238c8,35 17,70 27,105l350 300 -323 -203c12,41 24,83 37,125l314 244 -285 -154c14,41 28,83 43,125l217 173 -186 -87c27,72 57,146 88,221 -46,-82 -85,-160 -118,-235l-32 -15 -117 176 107 -260c-16,-41 -30,-80 -43,-119l-17 -9 -161 264c148,286 282,570 348,935 227,-472 280,-1043 26,-1788 -321,-816 -437,-1570 -580,-2333zm844 -269c183,739 365,1479 548,2218 174,438 167,867 -19,1288 -367,-268 -580,-566 -689,-885 -326,-779 -520,-1595 -606,-2442 106,153 213,305 457,372 129,-141 232,-325 309,-551zm1300 2346c-7,41 -16,81 -26,120l-185 -131c-13,-36 -26,-71 -37,-106l248 117zm-482 -2718l390 1539 7 47 46 280 52 276 16 74c10,174 1,339 -27,496l-274 -188c-11,-36 -22,-71 -32,-107l314 173 -336 -256c-8,-30 -15,-60 -22,-89l310 203c-228,-199 -33,-75 -302,-265 -13,-36 -26,-71 -37,-106l278 131 -303 -208c-11,-36 -22,-71 -32,-107l314 173 -336 -256c-8,-30 -15,-60 -22,-89l310 203c-215,-188 -282,-290 -327,-299 -7,-21 -15,-42 -22,-63l278 131 -303 -208c-11,-36 -22,-71 -32,-107l314 173 -336 -256c-8,-30 -15,-60 -22,-89l310 203c-228,-199 -33,-75 -302,-265 -13,-36 -26,-71 -37,-106l278 131 -303 -208c-11,-36 -22,-71 -32,-107l314 173 -336 -256c-8,-30 -15,-60 -22,-89l310 203 -327 -286 -1 2c-4,-20 -8,-41 -12,-61 2,23 4,46 6,69l-281 356 289 -287c5,37 10,74 17,111l-223 329 235 -269c7,31 15,62 24,93l-180 313 188 -244 16 8c11,33 24,67 38,102l-34 63 -240 305c131,-130 162,-161 289,-287 5,37 10,74 17,111l-223 329 235 -269c7,31 15,62 24,93l-180 313 188 -244 16 8c10,29 21,59 33,89 -41,31 -88,153 -260,371l289 -287c5,37 10,74 17,111l-223 329 235 -269c7,31 15,62 24,93l-180 313 188 -244 16 8c11,33 24,67 38,102l-34 63 -240 305c131,-130 162,-161 289,-287 5,37 10,74 17,111l-223 329 235 -269c7,31 15,62 24,93l-180 313 188 -244 16 8c11,33 24,67 38,102l-119 222 125 -150 31 13c30,64 65,131 108,201 -28,-64 -55,-127 -79,-189l156 64c-32,124 -76,242 -133,354 -453,-300 -670,-894 -780,-1622 -128,-390 -218,-800 -277,-1224 114,94 228,191 341,250 163,-137 281,-363 393,-603zm-1830 -955c-37,322 -43,651 58,1006 75,683 -126,1092 -515,1314 49,-340 28,-688 -77,-1045 -77,-293 -94,-585 -52,-878 195,-42 391,-185 586,-397zm1589 1274c-28,35 -60,69 -96,100 -14,-64 -26,-127 -37,-189l133 89zm70 -106c-19,34 -40,67 -65,99l-151 -159c-6,-38 -11,-75 -15,-112l231 172zm-278 -1158c124,-74 247,-164 371,-260 48,344 74,688 19,1032 -16,136 -47,266 -111,384l-242 -249c-4,-37 -7,-74 -10,-111l274 231 -279 -317c-2,-31 -3,-62 -4,-92l264 260c-184,-240 -18,-80 -244,-319 -6,-38 -11,-75 -15,-112l247 183 -256 -263c-4,-37 -7,-74 -10,-111l274 231 -279 -317c-2,-31 -3,-62 -4,-92l264 260 -259 -338zm-447 -132c51,94 111,184 232,244 59,-25 117,-55 176,-88l-321 273 341 -225c-3,37 -4,74 -5,112l-284 279 284 -217c1,31 2,63 5,96l-239 271 232 -202 14 11c4,35 10,70 17,107l-46 56 -296 251c154,-102 190,-126 340,-225 -3,37 -4,74 -5,112l-284 279 284 -217c1,31 2,63 5,96l-239 271 232 -202 14 11c4,35 10,70 17,107l-160 194 152 -122 28 19c16,65 36,134 62,207 -27,23 -56,45 -87,67 -411,-147 -456,-833 -470,-1564zm-154 1731c-30,46 -65,89 -104,128 -97,-40 -184,-87 -258,-146l152 -122 28 19c17,69 38,141 66,218 -15,-68 -28,-135 -40,-200l156 104zm62 -110c-18,38 -38,74 -61,108l-170 -180c-6,-38 -11,-75 -15,-112l246 183zm27 -1692c28,374 56,748 84,1122 -1,220 -36,411 -111,570l-255 -263c-4,-37 -7,-74 -10,-111l274 231 -279 -317c-2,-31 -3,-62 -4,-92l264 260c-184,-240 -18,-80 -244,-319 -6,-38 -11,-75 -15,-112l247 183 -256 -263c-4,-37 -7,-74 -10,-111l274 231 -279 -317c-2,-31 -3,-62 -4,-92l264 260 -264 -344 -2 1c0,-21 0,-42 0,-62 -3,23 -5,46 -8,69l-346 294 341 -225c-3,37 -4,74 -5,112l-284 279 284 -217c1,31 2,63 5,96l-239 271 232 -202 14 11c4,35 10,70 17,107l-46 56 -296 251c154,-102 190,-126 340,-225 -3,37 -4,74 -5,112l-284 279 284 -217c1,31 2,63 5,96l-239 271 232 -202 14 11c4,35 10,70 17,107l-160 194c-117,-92 -201,-210 -238,-367 -99,-385 -129,-778 -90,-1179 98,159 183,301 316,340 139,-103 308,-303 464,-577zm676 -1103c-333,316 -656,653 -850,1244 -41,68 -85,127 -132,176 -64,-88 -90,-189 -97,-297 -17,100 -7,200 96,298 -70,73 -145,125 -227,155 -180,-209 -240,-419 -180,-628 378,-827 824,-1249 1392,-949zm64 32c150,71 282,179 380,353 -132,448 -388,780 -863,904 -242,-395 -134,-810 483,-1256zm264 904c146,296 334,536 722,506 -89,222 -140,477 -157,762l-23 10 -73 28 -75 26 -77 25 -52 16c-300,-353 -327,-841 -265,-1373zm1398 -38c-148,338 -331,513 -548,526 -143,165 -158,432 -145,720l41 -20 64 -33 62 -34 59 -36 57 -37 36 -26c118,-203 208,-416 276,-639 -82,29 -156,74 -222,137 57,-82 131,-130 223,-142 22,-71 41,-142 58,-214 -28,311 -117,590 -294,826l28 -21 50 -41 47 -43 45 -44 42 -46 40 -47 38 -49 35 -50 33 -52 30 -54 27 -55 25 -57 22 -59 20 -61 16 -59c-41,-107 -101,-200 -166,-289zm200 -1385l397 382 -43 0 -55 0 -55 0 -55 0 -105 0 0 198c-64,41 -124,96 -178,166 60,-48 119,-91 178,-128l0 146c-69,42 -134,99 -192,175 64,-51 128,-97 192,-137l0 182c-64,41 -124,96 -178,166 60,-48 119,-91 178,-128l0 163c-51,38 -100,85 -145,143 49,-39 97,-74 145,-107l0 53 -70 13 -5 113 -6 70 -9 68 -4 24c-121,-216 -186,-455 -157,-731 127,-198 178,-481 168,-833zm-683 -295c206,137 412,265 618,333 26,370 -41,579 -135,744 -35,-132 -78,-265 -131,-397 59,23 115,55 165,113 -41,-85 -102,-117 -171,-128 -18,-45 -37,-90 -57,-135 85,31 171,63 256,102 -84,-82 -174,-115 -267,-126 -17,-36 -34,-73 -52,-109 103,7 206,28 310,99 -112,-121 -214,-120 -315,-110 -21,-42 -43,-83 -65,-125 109,25 219,56 328,108 -113,-92 -225,-118 -337,-125 -45,-82 -94,-164 -147,-245zm734 -308c150,79 300,143 450,187l-379 -23c-14,-14 -28,-28 -43,-42 12,14 23,28 35,42l-2 0 27 366 20 -309c16,21 33,42 49,64l2 356 42 -295c19,26 37,53 55,80l-13 307 52 -249c18,27 35,55 52,83l-7 215 42 -156c29,50 58,101 86,155 -25,-66 -52,-125 -80,-180l7 -27 162 6 -208 -50c-16,-28 -32,-55 -49,-81l3 -14 257 18 -299 -62c-17,-23 -33,-46 -50,-67l297 2 -332 -44c-22,-26 -43,-50 -65,-73l337 -21c52,15 104,28 156,38 53,288 21,534 -53,760l-30 0 -47 0c-190,-107 -351,-260 -501,-433 18,-184 25,-368 26,-551zm670 218c38,270 26,530 -38,766l0 0 55 0 55 0 55 0 110 0 55 0 55 0 55 0 55 0 55 0 55 0 165 -1 19 0 0 0 -15 -9 -14 -10 -13 -12 -12 -13 -10 -14 -9 -15 -7 -16 -5 -17 -3 -18 -1 -18 1 -18 3 -18 5 -17 7 -16 9 -15 10 -14 12 -13 13 -12 14 -10 12 -7 -7 -32 -12 -9 -13 -12 -11 -13 -10 -14 -9 -15 -7 -16 -5 -17 -3 -18 -1 -18 1 -18 3 -18 5 -17 7 -16 7 -12 -5 -21c-39,-36 -77,-73 -116,-109 -189,-11 -367,-47 -573,-109zm39 -679c26,189 50,378 6,583 152,90 322,128 509,115 -148,-265 -316,-502 -515,-699zm-631 0c129,-13 258,-26 387,-38 -2,-51 -4,-103 -6,-154 64,34 129,68 193,103 22,154 28,302 20,444l-190 -9c-20,-23 -40,-45 -59,-66l0 -14 241 -28 -288 -5c-20,-19 -39,-36 -59,-53l275 -50 -314 18c-25,-20 -49,-38 -74,-56l308 -79 -355 46c-16,-11 -31,-21 -47,-32 13,11 26,22 39,33l-2 0 90 334 -36 -289c19,16 38,33 56,50l65 328 -13 -280c22,21 44,42 65,64l42 286 4 -239c21,22 42,45 63,68l32 200 11 -152c36,41 72,84 107,128 -35,-56 -71,-107 -106,-153l2 -26 140 -22c-6,96 -19,188 -39,278 -193,-59 -387,-144 -580,-237 17,-132 26,-265 26,-397zm-103 -558c-4,58 -9,115 -13,173 41,100 79,203 103,321 136,-11 237,-21 322,-32 -55,-208 -202,-356 -412,-462zm-1804 -263c-9,-56 39,-103 122,-64 94,169 189,338 283,506 -135,-147 -271,-295 -406,-442zm-361 788c-319,-246 -389,-437 -322,-577 110,-151 337,-196 618,-192 172,161 344,349 515,596 161,216 322,432 483,647 78,69 133,149 90,269 -308,-30 -619,-72 -857,90 41,-91 72,-188 271,-192 163,0 326,0 490,0 -6,-155 -188,-282 -316,-417 -312,-442 -814,-510 -973,-224zm2941 831l27 366 20 -309c16,21 33,42 49,64l2 356 42 -295c19,26 37,53 55,80l-13 307 52 -249c18,27 35,55 52,83l-7 215 42 -156c29,50 58,101 86,155 -25,-66 -52,-125 -80,-180l7 -27 162 6 -208 -50c-16,-28 -32,-55 -49,-81l3 -14 257 18 -299 -62c-17,-23 -33,-46 -50,-67l297 2 -332 -44c-22,-26 -43,-50 -65,-73l337 -21 -379 -23c-14,-14 -28,-28 -43,-42 12,14 23,28 35,42l-2 0zm72 -647c32,75 39,150 -5,226 23,-75 20,-150 5,-226zm76 103c32,75 39,150 -5,226 23,-75 20,-150 5,-226zm80 94c32,75 39,150 -5,226 23,-75 20,-150 5,-226zm66 89c32,75 39,150 -5,226 23,-75 20,-150 5,-226zm-2342 2594l212 300 -212 -227c1,26 2,53 3,80l225 277 -220 -201c2,32 5,64 8,97l206 230 -199 -160c4,32 8,64 12,97l142 162 -132 -95c9,57 20,115 32,175 -22,-67 -39,-130 -53,-190l-23 -16 -122 107 129 -169c-6,-32 -10,-63 -14,-93l-12 -9 -187 176 192 -237c-2,-29 -3,-56 -4,-84l-229 189 229 -243c0,-33 2,-66 4,-98l-274 196 279 -256c2,-20 4,-40 6,-60 0,18 0,36 0,54l1 -1zm-947 2722l-314 -215c7,31 15,63 23,95l341 272 -317 -183c11,37 22,75 34,113l307 221 -281 -139c7,22 15,44 23,67 46,10 114,117 333,316l-314 -215c7,31 15,63 23,95l341 272 -317 -183c11,37 22,75 34,113l307 221 -281 -139c12,37 25,75 39,113 273,201 76,69 307,281l-314 -215c7,31 15,63 23,95l341 272 -317 -183c11,37 22,75 34,113l307 221 -281 -139c12,37 26,75 39,113l212 157 -183 -79c25,66 52,132 82,200 -44,-74 -80,-145 -111,-213l-32 -14 -122 159 114 -235c-15,-37 -28,-73 -40,-108l-16 -8 -183 259 174 -332c-10,-34 -18,-66 -25,-99l-230 285 217 -349c-8,-40 -14,-79 -20,-118 -125,134 -156,167 -284,305l235 -323 33 -67c-15,-37 -28,-73 -40,-108l-16 -8 -183 259 174 -332c-10,-34 -18,-67 -25,-99l-230 285 217 -349c-8,-40 -14,-79 -20,-118l-284 305c168,-231 212,-360 253,-393 -13,-32 -24,-63 -34,-94l-16 -8 -183 259 174 -332c-10,-34 -18,-66 -25,-99l-230 285 217 -349c-8,-40 -14,-79 -20,-118 -165,118 -198,154 -339,305l289 -323 3 -104c-16,-40 -31,-79 -44,-118l-18 -9 -237 389 227 -469c-11,-37 -20,-73 -28,-108l-252 312 237 -382c-9,-44 -15,-87 -21,-129l-311 333 300 -414c-3,-27 -6,-53 -8,-80 5,24 10,47 15,71l1 -2 364 332 -344 -236c8,34 17,69 26,104l374 297 -347 -201c12,41 24,82 37,124l413 280 -384 -191c14,41 28,82 43,124 299,221 83,76 333,315zm1818 -2689c-150,-38 -228,48 -297,151 49,-69 146,-122 297,-151zm-68 182c-176,-18 -280,71 -335,235 83,-126 191,-210 335,-235zm-951 -348c-101,30 -152,101 -152,212 10,-91 61,-162 152,-212zm-312 -1136c-345,262 -558,581 -578,984 74,-371 281,-694 578,-984zm-502 -250c-673,421 -886,926 -890,1469 81,-640 403,-1112 890,-1469zm113 1177c-53,-144 -35,-253 -6,-356 -14,119 -20,238 6,356zm94 -145c-53,-144 -35,-253 -6,-356 -14,119 -20,238 6,356zm106 -24c-72,-195 -47,-343 -8,-483 -20,161 -27,322 8,483zm103 -112c-72,-195 -47,-343 -8,-483 -20,161 -27,322 8,483zm112 -142c-72,-195 -47,-343 -8,-483 -20,161 -27,322 8,483zm-385 -439c149,18 247,-44 338,-118 -109,61 -219,110 -338,118zm-155 151c149,18 247,-44 338,-118 -109,61 -219,110 -338,118zm-118 133c149,18 247,-44 338,-118 -109,61 -219,110 -338,118zm-72 139c150,2 241,-71 323,-154 -101,72 -206,133 -323,154zm-21 176c147,-31 219,-122 281,-221 -83,93 -171,175 -281,221zm61 266c89,-107 82,-204 63,-299 0,104 -12,206 -63,299zm-294 -364c-78,-144 -52,-253 3,-353 -32,118 -42,236 -3,353zm-92 118c-71,-132 -47,-232 3,-323 -29,108 -38,215 -3,323zm-21 135c-102,-110 -103,-213 -77,-314 -2,112 16,218 77,314zm-42 133c-102,-110 -103,-213 -77,-314 -2,112 16,218 77,314zm-58 127c-102,-110 -103,-213 -77,-314 -2,112 16,218 77,314zm308 -618c-78,-144 -52,-253 3,-353 -32,118 -42,236 -3,353zm100 -100c-78,-144 -52,-253 3,-353 -32,118 -42,236 -3,353zm107 -160c-65,-121 -43,-212 3,-296 -27,99 -35,197 -3,296zm62 -87c-38,-132 3,-217 66,-289 -47,91 -77,185 -66,289zm97 -72c-38,-132 3,-217 66,-289 -47,91 -77,185 -66,289zm-395 -231c127,53 217,22 296,-32 -96,36 -194,54 -296,32zm-118 97c127,53 217,22 296,-32 -96,36 -194,54 -296,32zm-112 97c127,53 217,22 296,-32 -96,36 -194,54 -296,32zm-106 109c127,53 217,22 296,-32 -96,36 -194,54 -296,32zm-79 129c135,27 217,-21 283,-90 -87,55 -179,92 -283,90zm-91 133c135,27 217,-21 283,-90 -87,55 -179,92 -283,90zm-91 141c137,10 213,-47 270,-123 -80,65 -167,112 -270,123zm-52 142c137,10 213,-47 270,-123 -80,65 -167,112 -270,123zm-46 115c137,10 213,-47 270,-123 -80,65 -167,112 -270,123zm-21 126c137,-8 204,-75 251,-158 -70,75 -150,134 -251,158zm24 167c129,-49 172,-133 192,-226 -44,92 -103,172 -192,226zm-493 350c-41,667 111,1306 -56,1835 103,-568 -35,-1183 56,-1835zm20 406c145,82 253,239 324,470 -65,-178 -173,-334 -324,-470zm16 215c145,84 234,253 304,454 -87,-165 -185,-320 -304,-454zm4 195c150,103 217,273 260,462 -55,-159 -141,-313 -260,-462zm4 191c111,80 184,212 220,398 -53,-133 -124,-265 -220,-398zm8 195c65,97 135,188 124,382 -1,-127 -59,-255 -124,-382zm-100 -1019c-99,54 -165,151 -200,291 53,-106 115,-206 200,-291zm-12 203c-138,62 -181,174 -180,310 32,-117 84,-225 180,-310zm0 207c-73,60 -129,157 -148,334 28,-122 77,-234 148,-334zm8 203c-73,82 -94,179 -92,283 26,-99 55,-194 92,-283zm8 251c-59,93 -75,212 -48,358 6,-124 21,-244 48,-358zm100 -856c103,39 180,166 240,354 -75,-123 -154,-242 -240,-354zm-16 -231c93,45 173,123 224,275 -69,-115 -145,-202 -224,-275zm-80 80c-80,36 -139,109 -176,219 59,-73 117,-146 176,-219zm4655 -3981c-270,29 -504,-48 -722,-173 -823,-346 -1288,-242 -1714,-90 21,56 43,111 64,167 94,15 189,30 283,45 243,-88 490,-148 767,-13 -132,28 -229,103 -309,199 -323,277 -449,208 -548,90 -77,-193 -137,-247 -213,-269 60,107 146,248 258,423 113,281 287,542 503,788 107,86 230,111 354,128 21,-41 43,-90 64,-147 7,52 9,96 1,128l9 9 278 17 -247 16c16,17 32,35 48,54l243 32 -218 -2c12,16 25,32 37,49l220 45 -189 -14 -2 11c12,19 24,39 36,59l152 36 -119 -4 -5 20c20,40 40,84 59,132 -21,-39 -42,-77 -63,-114l-31 115 5 -158c-13,-21 -26,-41 -38,-61l-38 183 10 -226c-13,-20 -27,-39 -41,-58l-31 216 -1 -261c-12,-16 -24,-31 -36,-47l-15 227 -20 -269 1 0 -4 -5c-12,46 -44,68 -103,54 -60,-11 -120,-21 -180,-32 -4,71 2,141 84,212 158,124 332,226 541,282 37,-182 65,-365 32,-564 -183,-79 -365,-194 -548,-308 -116,112 -185,20 -264,-32 209,105 242,-73 193,-378 34,126 69,252 103,378 235,180 411,280 560,288 47,-180 34,-368 13,-513 -19,-98 -64,-188 -135,-269 -127,-32 -253,-64 -380,-96 151,27 306,67 438,38 0,-71 0,-141 0,-212 170,38 339,77 509,115 116,-81 232,-162 348,-244zm-1322 516l90 334 -36 -289c19,16 38,33 56,50l65 328 -13 -280c22,21 44,42 65,64l42 286 4 -239c21,22 42,45 63,68l32 200 11 -152c36,41 72,84 107,128 -35,-56 -71,-107 -106,-153l2 -26 151 -24 -201 -9c-20,-23 -40,-45 -59,-66l0 -14 241 -28 -288 -5c-20,-19 -39,-36 -59,-53l275 -50 -314 18c-25,-20 -49,-38 -74,-56l308 -79 -355 46c-16,-11 -31,-21 -47,-32 13,11 26,22 39,33l-2 0zm-686 -224c72,-122 82,-229 38,-350 140,-84 351,-68 581,-24l-56 35c-85,37 -149,92 -209,163 -100,85 -161,138 -228,166l-125 10zm-53 -312c12,-33 58,-43 72,5 36,118 15,204 -38,283 -54,38 -92,8 -72,-24 67,-83 73,-161 38,-264zm-29 -5c18,56 16,112 -5,168 -34,-66 -80,-93 -139,-82 29,-61 77,-90 144,-86z"/>
   <path class="fil2" d="M9114 10200c-70,36 -229,73 -299,109 133,164 354,288 543,113 78,-84 70,-294 -244,-222z"/>
   <path class="fil2" d="M8503 10921c152,6 301,11 442,17 128,12 173,219 -51,306 -204,16 -334,-122 -392,-323z"/>
   <path class="fil2" d="M4080 10200c70,36 229,73 299,109 -133,164 -354,288 -543,113 -78,-84 -70,-294 244,-222z"/>
   <path class="fil2" d="M4691 10921c-152,6 -301,11 -442,17 -128,12 -173,219 51,306 204,16 334,-122 392,-323z"/>
   <path class="fil2" d="M4765 11598c76,-21 217,-102 293,-124 16,210 -61,451 -319,452 -115,-8 -253,-168 26,-328zm3664 0c-76,-21 -217,-102 -293,-124 -16,210 61,451 319,452 115,-8 253,-168 -26,-328z"/>
   <path class="fil3" d="M4811 4623c-20,797 -542,1270 -1408,1521 81,1524 371,2874 853,4067l11 3 21 7 21 7 21 7 20 7 19 7 18 8 73 35 -54 65 -14 16 -15 16 -15 15 -16 15 -2 1c67,155 136,307 210,456l8 0 14 -1 14 -1 14 -1 14 -1 14 -1 14 -1 14 -1 63 36 3 66 -7 19 -7 19 -8 18 -8 18 -9 18 -9 17 -10 17 -1 1c70,133 142,264 217,393l7 -3 20 -10 20 -10 20 -9 20 -9 19 -8 19 -7 18 -7 77 -24 5 84 1 21 0 21 -1 22 -1 22 -2 22 -3 21 -3 21 -4 21 -5 21 -6 21 -6 20 -7 20 -8 20 -7 16c435,691 950,1316 1540,1879 591,-563 1106,-1187 1540,-1879l-7 -16 -8 -20 -7 -20 -6 -20 -6 -21 -5 -21 -4 -21 -3 -21 -3 -21 -2 -22 -1 -22 -1 -22 0 -21 1 -21 5 -84 77 24 18 7 19 7 19 8 20 9 20 9 20 10 20 10 7 3c75,-129 147,-260 217,-393l-1 -1 -10 -17 -9 -17 -9 -18 -8 -18 -8 -18 -7 -19 -7 -19 -6 -20 5 -63 67 -20 14 1 14 1 14 1 14 1 14 1 14 1 14 1 8 0c73,-149 143,-301 210,-456l-2 -1 -16 -15 -15 -15 -15 -16 -14 -16 -54 -65 73 -35 18 -8 19 -7 20 -7 21 -7 21 -7 21 -7 11 -3c482,-1192 772,-2543 853,-4067 -865,-251 -1387,-724 -1408,-1521 -1220,-225 -2352,-225 -3572,0z"/>
   <path class="fil0" d="M7310 12673l47 -58 47 -58 46 -59 46 -59 45 -59 45 -60 44 -60 44 -61 44 -61 43 -61 43 -62 42 -62c86,-129 166,-252 240,-372l0 -3 -1 -22 -1 -22 0 -21 1 -21 5 -84 77 24 8 3c298,-500 511,-965 753,-1614l41 -113 40 -114 38 -115 37 -116 36 -117 35 -118 34 -119 33 -120 32 -121 30 -122 29 -123 28 -124 27 -125 26 -126 25 -127 24 -128 22 -129 21 -130 20 -131 19 -132 18 -133 16 -134 15 -135 14 -136 13 -137 12 -138 11 -139 9 -140 1 -24 -50 -16 -79 -28 -77 -30 -76 -31 -74 -33 -71 -34 -69 -36 -67 -38 -65 -39 -63 -41 -61 -43 -58 -45 -56 -47 -54 -49 -51 -51 -49 -52 -46 -54 -43 -56 -40 -58 -38 -60 -35 -62 -32 -64 -29 -66 -26 -68 -23 -70 -20 -71 -16 -73 -13 -75 -10 -77 -3 -35 -109 -18 -112 -18 -111 -16 -111 -15 -110 -14 -110 -12 -110 -11 -109 -10 -109 -8 -109 -7 -109 -6 -109 -5 -109 -3 -108 -2 -108 -1 -108 1 -108 2 -109 3 -109 5 -109 6 -109 7 -109 8 -109 10 -110 11 -110 12 -110 14 -111 15 -111 16 -112 18 -109 18 -3 35 -10 77 -13 75 -16 73 -20 71 -23 70 -26 68 -29 66 -32 64 -35 62 -38 60 -40 58 -43 56 -46 54 -49 52 -51 51 -54 49 -56 47 -58 45 -61 43 -63 41 -65 39 -67 38 -69 36 -71 34 -74 33 -76 31 -77 30 -79 28 -50 16 1 24 9 140 11 139 12 138 13 137 14 136 15 135 16 134 18 133 19 132 20 131 21 130 22 129 24 128 25 127 26 126 27 125 28 124 29 123 30 122 32 121 33 120 34 119 35 118 36 117 37 116 38 115 40 114 41 113c181,488 465,1089 762,1611l76 -24 5 84 1 21 0 21 -1 22 -1 14c80,136 160,264 239,383l42 62 43 62 43 61 44 61 44 61 44 60 45 60 45 59 46 59 46 59 47 58 47 58 48 58 48 57 49 57 49 56 49 56 50 56 50 55 51 55 51 55 52 54 52 54 53 54 53 53 53 53 5 5 5 -5 53 -53 53 -53 53 -54 52 -54 52 -54 51 -55 51 -55 50 -55 50 -56 49 -56 49 -56 49 -57 48 -57 48 -58z"/>
   <path class="fil4" d="M8921 9690l39 -114 38 -115 37 -116 36 -117 35 -118 34 -119 33 -120 32 -121 30 -122 29 -122 28 -123 27 -124 26 -125 25 -126 23 -127 22 -128 21 -129 20 -130 19 -131 18 -132 16 -133 15 -134 14 -135 13 -136 12 -137 10 -139 8 -125 -14 -4 -81 -28 -79 -30 -77 -32 -75 -33 -73 -35 -71 -37 -69 -38 -67 -40 -64 -42 -62 -44 -60 -46 -58 -48 -55 -50 -53 -52 -50 -54 -47 -56 -45 -58 -42 -60 -39 -62 -36 -64 -33 -66 -30 -68 -27 -70 -23 -72 -20 -74 -17 -75 -14 -77 -10 -76 -71 -12 -111 -17 -111 -16 -110 -15 -110 -14 -109 -12 -109 -11 -109 -10 -109 -8 -108 -7 -108 -6 -108 -5 -108 -3 -108 -2 -108 -1 -108 1 -108 2 -108 3 -108 5 -108 6 -108 7 -109 8 -109 10 -109 11 -109 12 -110 14 -110 15 -111 16 -111 17 -71 12 -10 76 -14 77 -17 75 -20 74 -23 72 -27 70 -30 68 -33 66 -36 64 -39 62 -42 60 -45 58 -47 56 -50 54 -53 52 -55 50 -58 48 -60 46 -62 44 -64 42 -67 40 -69 38 -71 37 -73 35 -75 33 -77 32 -79 30 -81 28 -14 4 8 125 10 139 12 137 13 136 14 135 15 134 16 133 18 132 19 131 20 130 21 129 22 128 23 127 25 126 26 125 27 124 28 123 29 122 30 122 32 121 33 120 34 119 35 118 36 117 37 116 38 115 39 114 40 113c248,667 442,1104 752,1617l39 -12 5 84 0 0c95,154 201,316 322,495l42 61 43 61 43 61 44 60 44 60 45 60 45 59 46 59 46 58 47 58 47 58 47 57 48 57 48 57 49 56 49 56 50 55 50 55 51 55 51 54 51 54 52 54 52 53 53 53 23 23 23 -23 53 -53 52 -53 52 -54 51 -54 51 -54 51 -55 50 -55 50 -55 49 -56 49 -56 48 -57 48 -57 47 -57 47 -58 47 -58 46 -58 46 -59 45 -59 45 -60 44 -60 44 -60 43 -61 43 -61 42 -61 42 -62 41 -62c86,-131 165,-255 239,-375l5 -80 37 11c314,-521 528,-985 795,-1729z"/>
   <path class="fil5" d="M6540 6520c-31,14 -61,29 -89,48 -56,39 -130,-37 -118,-97 17,-90 87,-60 135,-113 40,-44 -12,-158 -78,-130 -45,43 -93,125 -166,77l0 0c-28,-19 -33,-53 -23,-84 26,-79 105,-78 134,-145 -28,-61 -79,-27 -123,-9 -19,-27 -40,-64 -71,-78 -25,-12 -140,49 -163,52 -63,7 -96,-37 -93,-95 -18,-4 -34,-12 -48,-21l0 0c-39,-26 -55,-66 -73,-107 33,-9 68,-15 96,-37 -32,-15 -59,-33 -80,-54 -70,-69 -76,-186 47,-181 -56,-79 -48,-146 -26,-232 134,109 265,224 438,266 -17,40 -35,77 -22,122 22,72 95,79 154,44 24,-50 47,-137 -16,-170 -50,-26 -74,-10 -131,-50 -31,-22 -21,-89 3,-113 -24,-32 -38,-62 -43,-90 -15,-90 60,-149 142,-115 16,7 31,16 44,30 19,-13 40,-20 62,-21 0,-1 -1,-2 -1,-3 -24,-58 -40,-147 5,-198 29,-33 75,-46 118,-36 23,6 47,18 68,39 21,-21 44,-33 68,-39 43,-10 89,3 118,36l0 0c20,22 31,52 28,85 0,15 -1,30 -3,46l0 0c-3,16 -6,32 -12,47l0 0c-3,9 -6,18 -9,25 19,0 39,7 60,21 14,-14 30,-25 46,-32 82,-34 156,25 142,115 -5,28 -19,59 -43,91 29,30 23,69 15,105 -46,33 -94,33 -142,58 -63,33 -40,120 -16,170 58,35 132,28 154,-44 13,-44 -5,-82 -22,-122 178,-43 301,-155 438,-266 22,86 30,153 -26,232 123,-5 117,111 47,181 -21,21 -48,39 -80,54 27,21 63,28 96,37 -26,59 -48,110 -121,128 3,46 -12,76 -45,90 -77,33 -160,-69 -211,-46 -31,14 -51,51 -71,78 -44,-18 -96,-52 -123,9 30,68 108,67 134,145 5,14 6,29 4,42 -3,17 -12,31 -27,41l0 0c-15,10 -36,14 -62,11l-12 -1 -8 -8 -83 -79c-5,-2 -12,-4 -19,-5 -11,-1 -22,0 -33,4 -9,4 -18,11 -24,23 -5,9 -8,20 -10,35l0 2 0 2c-8,35 -4,55 8,68 45,50 149,41 131,160 -6,15 -15,28 -27,37l0 0c-21,16 -64,29 -87,12 -27,-19 -56,-33 -85,-47 70,49 132,104 99,238l0 1c-4,12 -9,23 -17,32 4,3 9,7 12,10l0 0c17,17 28,41 28,67l0 0 0 0c0,26 -11,49 -28,66 -13,13 -31,23 -50,26l0 170 954 -531 -36 -65 -22 -40 44 -11 901 -233 117 -30 -83 89 -615 657 -27 29 -26 -30 -98 -116 -956 538 1829 1018 57 32 -57 30 -1803 949 1231 653 56 29 -54 32 -1279 757 354 207 87 -87 26 -26 25 27 498 540 66 72 -97 -13 -774 -106 -44 -6 16 -41 42 -110 -330 -195c0,40 -1,79 -1,119 -3,234 -5,469 1,703 56,11 94,42 113,78 9,18 14,37 13,55 0,19 -6,38 -16,55 -15,24 -40,44 -76,55 17,26 29,55 37,85 11,43 13,90 5,135 -8,45 -27,89 -58,126l0 0c-33,39 -80,70 -142,86l-9 2 -9 -2c-62,-16 -109,-47 -142,-86l0 0c-31,-37 -50,-80 -58,-126 -8,-45 -6,-91 5,-135 8,-31 20,-60 37,-85 -36,-11 -61,-31 -76,-55 -10,-17 -16,-36 -16,-55 0,-19 4,-37 13,-55 19,-36 57,-67 113,-78 6,-234 4,-468 1,-702 -1,-50 -1,-99 -2,-149l-379 224 42 110 16 41 -44 6 -774 106 -97 13 66 -72 498 -540 25 -27 26 26 87 87 354 -207 -1279 -757 -54 -32 56 -29 1231 -653 -1803 -949 -57 -30 57 -32 1829 -1018 -956 -538 -98 116 -26 30 -27 -29 -615 -657 -83 -89 117 30 901 233 44 11 -22 40 -36 65 1003 558 0 -197c-19,-3 -37,-13 -50,-26l0 0c-17,-17 -28,-41 -28,-66l0 0 0 0c0,-26 11,-49 28,-66 4,-4 8,-7 12,-11 -8,-9 -13,-19 -17,-32l0 -1c-33,-136 31,-191 101,-240zm-1480 1907l1421 753c2,-65 -3,-116 -13,-160 -11,-50 -27,-92 -44,-132l-5 -11 3 -11 10 -36c-12,-5 -23,-13 -32,-22 -18,-18 -30,-44 -30,-71l0 0 0 0 0 0c0,-28 11,-53 30,-71 18,-18 44,-30 71,-30l0 0 13 0 3 -10 6 -22 0 -982 -1433 806zm1703 728l1372 -728 -1384 -778 0 955 6 22 3 10 13 0 0 0c28,0 53,11 71,30 18,18 30,44 30,71l0 0 0 0 0 0c0,28 -11,53 -30,71l0 0c-9,9 -20,17 -33,22l10 36 3 11 -5 11c-16,38 -31,78 -42,124 -9,40 -15,86 -15,142zm854 971l-783 -409c-3,40 -9,81 -19,122 -9,36 -20,71 -34,107 1,-1 2,-1 3,-2 48,-26 101,-33 158,-19l66 15 -51 45c-33,29 -63,59 -82,88 -17,25 -25,51 -20,78l0 1c5,29 6,60 0,92 -6,32 -19,65 -40,100 6,4 11,8 16,13 18,18 30,43 30,71l0 0 0 0 0 0c0,28 -11,53 -30,71 -18,18 -43,30 -71,30l0 0 -8 0 0 7c1,20 1,40 2,62 0,11 0,22 1,33l863 -505zm-1207 -434l-831 434 912 534c0,-16 1,-32 1,-47 1,-26 1,-51 2,-76l0 -7 -8 0 0 0c-28,0 -53,-11 -71,-30 -18,-18 -30,-43 -30,-71l0 0 0 0 0 0c0,-28 11,-53 30,-71 5,-5 10,-9 16,-13 -22,-35 -34,-68 -40,-100 -6,-32 -5,-63 0,-92l0 -1c6,-27 -3,-53 -20,-78 -19,-30 -50,-59 -82,-88l-51 -45 67 -15c58,-13 111,-7 158,19 1,1 2,1 3,2 -16,-41 -28,-81 -37,-121 -10,-45 -16,-89 -17,-133zm135 -4416c32,57 -7,114 -53,148 53,29 97,70 132,120 33,-48 76,-88 127,-117 -40,-37 -50,-99 -27,-148 0,-1 1,-1 1,-2 -60,-1 -119,-1 -179,-1z"/>
   <path class="fil1" d="M9038 10188c58,-134 115,-268 173,-402 167,77 306,173 350,339 31,239 12,457 -295,561 -132,4 -264,-36 -396,-122 18,-49 42,-70 72,-63l9 -30 12 8 18 10 18 9 19 8 19 8 19 7 20 5 20 4 20 3 20 2 20 1 21 -1 21 -2 21 -4 21 -5 21 -7 20 -8 20 -10 20 -12 20 -13 19 -15 20 -18 9 -11 8 -11 7 -11 6 -12 5 -12 5 -13 4 -13 3 -13 2 -14 1 -14 0 -14 -1 -14 -3 -14 -4 -14 -5 -13 -7 -13 -8 -13 -10 -12 -11 -11 -13 -10 -14 -9 -15 -8 -17 -7 -18 -5 -19 -4 -21 -3 -22 -1 -24 0 -25 2 -27 3 -28 5 -33 7 -17 8 -15 6 -17 7 -18 7 -3 1 4 -13zm-526 1156c-53,43 -103,94 -134,202l14 6 17 7 15 5 18 6 29 17 24 16 22 16 19 16 17 16 15 16 13 16 11 16 10 16 8 16 6 16 4 16 2 16 1 16 -1 15 -3 15 -4 14 -5 13 -7 13 -8 12 -9 11 -9 10 -10 10 -11 9 -11 8 -12 7 -12 6 -12 5 -13 4 -13 3 -13 2 -14 2 -27 -1 -24 -2 -24 -4 -23 -5 -22 -7 -21 -8 -20 -9 -19 -10 -18 -11 -17 -12 -15 -13 -14 -14 -13 -15 -12 -16 -5 -7 -13 19c-7,4 -14,8 -19,12l-13 21 -2 4c-5,19 -1,43 14,72 202,159 382,168 539,25 171,-300 135,-518 -177,-629zm244 -453c45,-142 101,-229 168,-260 206,61 352,151 366,302 15,351 -283,682 -771,356 7,-43 31,-64 72,-63l24 -49 9 8 14 11 14 11 15 10 15 9 16 9 16 8 16 7 17 6 17 5 18 4 18 4 19 3 19 2 19 1 20 0 25 -1 46 -21 36 -22 30 -25 25 -27 19 -28 13 -29 8 -30 3 -29 -2 -29 -7 -27 -11 -25 -16 -23 -20 -19 -23 -15 -26 -11 -28 -5 -16 -1 -13 -1 -13 -1 -13 -1 -13 -1 -13 -1 -14 -1 -14 -1 -14 -1 -14 -1 -14 -1 -14 -1 -14 -1 -14 -1 -6 0 4 -9zm784 -1700c106,98 154,206 117,329 -4,-110 -47,-219 -117,-329zm-92 223c86,92 133,216 141,373 -41,-124 -88,-248 -141,-373zm68 -828c25,261 79,509 195,731 114,-27 216,-89 316,-155 -139,270 -298,520 -462,765 -126,-65 -253,-129 -379,-194 134,-382 236,-765 331,-1147zm19 440c-42,213 -116,424 -302,624 147,-200 233,-411 302,-624zm771 -7426c18,-51 54,-81 94,-76 45,-1 68,52 30,73 -36,8 -89,0 -98,34 -29,12 -38,2 -26,-30zm-96 35c38,-94 109,-147 182,-135 85,1 123,103 51,140 -68,12 -168,-7 -187,55 -55,20 -71,0 -47,-59zm793 833c-130,50 -263,86 -416,34 -397,-57 -743,-7 -1026,173 287,4 472,120 721,106 333,13 558,-112 721,-313zm1676 2940c-180,-290 -305,-661 -376,-1112 -162,-555 -533,-870 -1047,-1021 -660,-111 -1220,128 -1636,880 257,286 288,876 -366,981 681,20 816,-485 630,-1001 402,-625 1055,-613 1351,-344 316,249 441,522 539,799 261,529 562,802 904,819zm-2427 5410c26,-39 52,-79 78,-118l339 19 6 22c-17,27 -34,53 -51,79l-371 -2zm834 -52l-6 0c-736,1194 -1628,2154 -2725,2801 -591,248 -944,487 -1037,718 -89,-436 49,-678 219,-891 17,32 34,64 52,96 144,-243 356,-419 586,-577 639,-441 1095,-911 1546,-1372 192,-237 368,-478 531,-722l340 50c-18,27 -36,55 -54,82l-368 -2 336 49c-26,38 -52,75 -78,113l-372 -2 339 49c-20,28 -40,55 -60,83l-372 -2 338 49c-26,35 -52,70 -78,104l-369 -2 334 49c-19,24 -37,48 -56,71l-375 -2 337 49c-25,31 -50,61 -75,92l-363 -2 325 47c-27,31 -53,62 -81,93l-363 -2 323 47c-29,33 -59,66 -89,98l-369 -2 326 48c-28,30 -57,60 -86,89l-367 -2 322 47c-27,27 -55,54 -83,81l-361 -2 312 45c-27,24 -55,47 -83,70l-377 -2 322 47c-30,24 -61,49 -92,73l-361 -2 306 45c-31,24 -62,47 -94,71l-364 -2 306 45c-40,29 -80,59 -120,88l-364 -2 305 44c-54,39 -109,78 -163,117l-332 -2 278 40c-41,29 -81,58 -121,88l-347 -2 291 42c-52,38 -104,76 -155,115l-356 -2 301 44c-47,36 -94,73 -140,110l-309 39 260 1c-51,42 -101,85 -149,128l-297 77 253 -37c-42,39 -83,78 -123,118l-321 83 280 -41c-30,32 -59,64 -88,96l-247 63 212 -21c-90,107 -169,220 -236,339 76,-101 158,-196 243,-288l-75 195 113 -236c39,-41 79,-81 120,-120l-61 222 100 -259c51,-48 104,-96 157,-142l-50 275 92 -311c47,-40 95,-80 144,-120l1 313 43 -348c44,-35 88,-70 133,-104l56 352 -11 -387c57,-44 115,-87 173,-130l58 361 -11 -395c47,-35 94,-69 142,-104l60 373 -12 -408c48,-35 97,-70 145,-106l57 354 -11 -387c44,-32 88,-65 132,-97l57 354 -11 -388c36,-27 71,-53 106,-80l57 355 -11 -390c29,-23 58,-45 87,-68l55 341 -11 -376c35,-28 69,-56 103,-84l56 347 -11 -385c27,-26 53,-53 79,-79l54 338 -11 -382c28,-29 56,-59 84,-88l54 337 -11 -383c31,-34 61,-68 91,-102l55 342 -11 -393c25,-29 50,-59 75,-89l55 342 -12 -395c20,-25 40,-50 60,-75l53 331 -11 -385c18,-24 36,-47 54,-71l54 339 -12 -396c23,-31 45,-62 67,-93l54 338 -12 -399c17,-24 33,-48 50,-73l55 341 -12 -405c23,-35 47,-71 69,-107l57 353 -12 -423c11,-18 22,-36 33,-53l56 346 -12 -418c11,-19 23,-39 34,-58l81 318 -45 -380c19,-34 38,-67 57,-101l90 355 -50 -422 -3 0c23,-43 45,-85 68,-128 -26,43 -52,86 -78,129l-387 32 355 20c-18,29 -36,58 -54,87l-2 -14 -380 32c229,-353 434,-711 625,-1072 -102,404 -78,788 129,1141zm-1562 -162c35,-42 61,-89 79,-138l298 6c-19,31 -39,63 -59,94l-318 38zm-202 291c-15,-49 -37,-95 -66,-135 120,-29 206,-84 265,-153l291 5c-21,32 -42,64 -64,96l-337 41 305 6c-23,34 -47,68 -71,101l-324 39zm24 124c-3,-41 -11,-82 -23,-122l289 5c-23,31 -46,62 -69,93l-196 24zm-4 120c5,-33 7,-66 5,-100l159 3c-22,29 -45,57 -68,85l-97 12zm-31 111c11,-25 19,-51 25,-78l63 1c-23,25 -46,50 -69,75l-18 2zm-484 278c-2,-10 -5,-21 -8,-32 133,13 239,-9 319,-53 -19,18 -37,36 -56,54l-256 31zm17 122c-2,-36 -7,-72 -15,-110l205 4c-33,32 -67,64 -101,96l-89 11zm-1 73c1,-13 1,-25 1,-38l39 1c-13,13 -27,25 -40,37zm1448 -1756c182,39 346,-149 511,-323 -486,953 -997,1895 -1933,2641 -432,319 -863,640 -1243,1045 -27,-299 -12,-562 64,-776 127,-188 253,-376 380,-564 104,79 207,122 301,135l-281 34 285 5c-39,39 -78,79 -116,118l-282 73 241 -30c-42,45 -83,91 -123,137l-266 106 231 -64c-35,41 -68,82 -100,124l-288 114 255 -71c-24,33 -48,66 -70,100l-222 87 194 -44c-71,110 -131,224 -178,343 59,-102 123,-201 192,-295l-46 190 77 -232c32,-43 64,-84 97,-126l-30 213 62 -252c42,-51 85,-101 129,-150l-14 261 48 -300c39,-43 79,-86 119,-128l38 291 -2 -328c37,-38 74,-75 111,-113l94 320 -56 -358 23 -23c52,-7 100,-23 143,-47l76 258 -44 -278c50,-36 92,-85 122,-143l83 282 -55 -348c5,-15 9,-30 13,-45 35,-33 70,-66 105,-99l95 322 -56 -358c37,-35 74,-70 111,-106l95 322 -57 -359c30,-29 60,-58 89,-87l95 323 -57 -361c25,-24 49,-49 73,-74l91 310 -55 -348c29,-30 57,-60 86,-90l93 315 -56 -356c22,-28 43,-55 64,-83l90 308 -56 -354c23,-31 45,-61 67,-92l90 306 -56 -354c25,-35 49,-70 73,-106l92 311 -57 -363c20,-30 40,-61 59,-91l92 311 -58 -366c16,-25 31,-51 46,-76l89 301 -56 -356c14,-24 28,-48 42,-72l91 308 -58 -366c17,-31 34,-63 51,-94l90 307 -58 -368c13,-24 25,-49 38,-73l91 310 -59 -375c18,-36 35,-71 52,-107l94 320 -44 -280zm-44 -115l2 5 -7 0 -342 41 318 6c-19,38 -39,76 -59,114l-346 42 321 6c-15,28 -30,56 -46,84l-346 42 319 6c-20,35 -40,71 -60,106l-343 41 315 6c-14,24 -29,49 -43,73l-327 39c56,-159 30,-343 -25,-466 234,-271 408,-573 573,-878 9,311 18,473 95,733zm1381 -156c-28,53 -55,105 -82,157l-152 -341c11,-37 20,-74 29,-109l206 293zm92 -177c-30,59 -60,116 -90,173l-192 -361c9,-44 17,-88 23,-130l258 318zm30 -2849c160,319 334,569 528,718 -58,539 -137,1072 -316,1577 -72,204 -156,383 -241,551l-210 -335 -31 -74c16,-41 30,-80 43,-119l17 -9 175 286 -164 -367c11,-37 20,-74 29,-109l221 315 -206 -386c9,-44 17,-88 23,-130l274 337c-160,-255 -201,-398 -240,-435 14,-35 26,-70 38,-104l17 -9 175 286 -164 -367c11,-37 20,-74 29,-109l221 315 -206 -386c9,-44 17,-88 23,-130 121,148 150,185 274,337l-224 -357 -31 -74c16,-41 30,-80 43,-119l17 -9 175 286 -164 -367c11,-37 20,-74 29,-109l221 315 -206 -386c9,-44 17,-88 23,-130l274 337 -262 -418c4,-27 7,-54 10,-81 -5,24 -10,48 -16,72l-1 -2 -342 335 321 -238c-8,35 -17,70 -26,105l-350 300 323 -203c-12,41 -24,83 -37,125l-314 244 285 -154c-14,41 -28,83 -43,125 -279,223 -78,77 -316,311l321 -238c-8,35 -17,70 -27,105l-350 300 323 -203c-12,41 -24,83 -37,125l-314 244 285 -154c-8,24 -16,49 -25,74 -46,11 -118,130 -343,350l321 -238c-8,35 -17,70 -26,105l-350 300 323 -203c-12,41 -24,83 -37,125l-314 244 285 -154c-14,41 -28,83 -43,125 -279,223 -78,77 -316,311l321 -238c-8,35 -17,70 -27,105l-350 300 323 -203c-12,41 -24,83 -37,125l-314 244 285 -154c-14,41 -28,83 -43,125l-217 173 186 -87c-27,72 -57,146 -88,221 46,-82 85,-160 118,-235l32 -15 117 176 -107 -260c16,-41 30,-80 43,-119l17 -9 161 264c-148,286 -282,570 -348,935 -227,-472 -280,-1043 -26,-1788 321,-816 437,-1570 580,-2333zm-844 -269c-183,739 -365,1479 -548,2218 -174,438 -167,867 19,1288 367,-268 580,-566 689,-885 326,-779 520,-1595 606,-2442 -106,153 -213,305 -457,372 -129,-141 -232,-325 -309,-551zm-1300 2346c7,41 16,81 26,120l185 -131c13,-36 26,-71 37,-106l-248 117zm482 -2718l-390 1539 0 1 -7 46 -6 34 -2 13 -22 132 -9 54 -8 47 -5 28 0 2 -24 130 -14 69 -9 46 -8 36 -8 39c-10,173 -1,338 27,494l274 -188c11,-36 22,-71 32,-107l-314 173 336 -256c8,-30 15,-60 22,-89l-310 203c228,-199 33,-75 302,-265 13,-36 26,-71 37,-106l-278 131 303 -208c11,-36 22,-71 32,-107l-314 173 336 -256c8,-30 15,-60 22,-89l-310 203c215,-188 282,-290 327,-299 7,-21 15,-42 22,-63l-278 131 303 -208c11,-36 22,-71 32,-107l-314 173 336 -256c8,-30 15,-60 22,-89l-310 203c228,-199 33,-75 302,-265 13,-36 26,-71 37,-106l-278 131 303 -208c11,-36 22,-71 32,-107l-314 173 336 -256c8,-30 15,-60 22,-89l-310 203 327 -286 1 2c4,-20 8,-41 12,-61 -2,23 -4,46 -6,69l281 356 -289 -287c-5,37 -10,74 -17,111l223 329 -235 -269c-7,31 -15,62 -24,93l180 313 -188 -244 -16 8c-11,33 -24,67 -38,102l34 63 240 305c-131,-130 -162,-161 -289,-287 -5,37 -10,74 -17,111l223 329 -235 -269c-7,31 -15,62 -24,93l180 313 -188 -244 -16 8c-10,29 -21,59 -33,89 41,31 88,153 260,371l-289 -287c-5,37 -10,74 -17,111l223 329 -235 -269c-7,31 -15,62 -24,93l180 313 -188 -244 -16 8c-11,33 -24,67 -38,102l34 63 240 305c-131,-130 -162,-161 -289,-287 -5,37 -10,74 -17,111l223 329 -235 -269c-7,31 -15,62 -24,93l180 313 -188 -244 -16 8c-11,33 -24,67 -38,102l119 222 -125 -150 -31 13c-30,64 -65,131 -108,201 28,-64 55,-127 79,-189l-156 64c32,124 76,242 133,354 453,-300 670,-894 780,-1622 128,-390 218,-800 277,-1224 -114,94 -228,191 -341,250 -163,-137 -281,-363 -393,-603zm1830 -955c37,322 43,651 -58,1006 -75,683 126,1092 515,1314 -49,-340 -28,-688 77,-1045 77,-293 94,-585 52,-878 -195,-42 -391,-185 -586,-397zm-1589 1274c28,35 60,69 96,100 14,-64 26,-127 37,-189l-133 89zm-70 -106c19,34 40,67 65,99l151 -159c6,-38 11,-75 15,-112l-231 172zm278 -1158c-124,-74 -247,-164 -371,-260 -48,344 -74,688 -19,1032 16,136 47,266 111,384l242 -249c4,-37 7,-74 10,-111l-274 231 279 -317c2,-31 3,-62 4,-92l-264 260c184,-240 18,-80 244,-319 6,-38 11,-75 15,-112l-247 183 256 -263c4,-37 7,-74 10,-111l-274 231 279 -317c2,-31 3,-62 4,-92l-264 260 259 -338zm447 -132c-51,94 -111,184 -232,244 -59,-25 -117,-55 -176,-88l321 273 -341 -225c3,37 4,74 5,112l284 279 -284 -217c-1,31 -2,63 -5,96l239 271 -232 -202 -14 11c-4,35 -10,70 -17,107l46 56 296 251c-154,-102 -190,-126 -340,-225 3,37 4,74 5,112l284 279 -284 -217c-1,31 -2,63 -5,96l239 271 -232 -202 -14 11c-4,35 -10,70 -17,107l160 194 -152 -122 -28 19c-16,65 -36,134 -62,207 27,23 56,45 87,67 412,-147 456,-833 470,-1564zm154 1731c30,46 65,89 104,128 97,-40 184,-87 258,-146l-152 -122 -28 19c-17,69 -38,141 -66,218 15,-68 28,-135 40,-200l-156 104zm-62 -110c18,38 38,74 61,108l170 -180c6,-38 11,-75 15,-112l-246 183zm-27 -1692c-28,374 -56,748 -84,1122 1,220 36,411 111,570l255 -263c4,-37 7,-74 10,-111l-274 231 279 -317c2,-31 3,-62 4,-92l-264 260c184,-240 18,-80 244,-319 6,-38 11,-75 15,-112l-247 183 256 -263c4,-37 7,-74 10,-111l-274 231 279 -317c2,-31 3,-62 4,-92l-264 260 264 -344 2 1c0,-21 0,-42 0,-62 3,23 5,46 8,69l346 294 -341 -225c3,37 4,74 5,112l284 279 -284 -217c-1,31 -2,63 -5,96l239 271 -232 -202 -14 11c-4,35 -10,70 -17,107l46 56 296 251c-154,-102 -190,-126 -340,-225 3,37 4,74 5,112l284 279 -284 -217c-1,31 -2,63 -5,96l239 271 -232 -202 -14 11c-4,35 -10,70 -17,107l160 194c117,-92 201,-210 238,-367 99,-385 129,-778 90,-1179 -98,159 -183,301 -316,340 -139,-103 -308,-303 -464,-577zm-676 -1103c333,316 656,653 850,1244 41,68 85,127 132,176 64,-88 90,-189 97,-297 17,100 7,200 -96,298 70,73 145,125 227,155 180,-209 240,-419 180,-628 -378,-827 -824,-1249 -1392,-949zm-64 32c-150,71 -282,179 -380,353 132,448 388,780 863,904 242,-395 134,-810 -483,-1256zm-264 904c-146,296 -334,536 -722,506 89,222 140,477 157,762l23 10 73 28 75 26 77 25 52 16c300,-353 327,-841 265,-1373zm-1398 -38c148,338 331,513 548,526 143,165 158,432 145,720l-41 -20 -64 -33 -62 -34 -59 -36 -57 -37 -36 -26c-118,-203 -208,-416 -276,-639 82,29 156,74 222,137 -57,-82 -131,-130 -223,-142 -22,-71 -41,-142 -58,-214 28,311 117,590 294,826l-28 -21 -50 -41 -47 -43 -45 -44 -42 -46 -40 -47 -38 -49 -35 -50 -33 -52 -30 -54 -27 -55 -25 -57 -22 -59 -20 -61 -16 -59c41,-107 101,-200 166,-289zm-200 -1385l-397 382 82 0 55 0 55 0 55 0 55 0 105 0 0 272c29,27 57,58 83,92 -28,-22 -56,-43 -83,-64l0 151c34,30 67,65 97,105 -33,-26 -65,-51 -97,-74l0 193c29,27 57,58 83,92 -28,-22 -56,-43 -83,-64l0 183c17,18 34,38 50,59 -17,-13 -33,-26 -50,-39l0 36 -23 -9 4 84 6 70 9 68 4 24c121,-216 186,-455 157,-731 -127,-198 -178,-481 -168,-833zm683 -295c-206,137 -412,265 -618,333 -26,370 41,579 135,744 35,-132 78,-265 131,-397 -59,23 -115,55 -165,113 41,-85 102,-117 171,-128 18,-45 37,-90 57,-135 -85,31 -171,63 -256,102 84,-82 174,-115 267,-126 17,-36 34,-73 52,-109 -103,7 -206,28 -310,99 112,-121 214,-120 315,-110 21,-42 43,-83 65,-125 -109,25 -219,56 -328,108 113,-92 225,-118 337,-125 45,-82 94,-164 147,-245zm-734 -308c-150,79 -300,143 -450,187l379 -23c14,-14 28,-28 43,-42 -12,14 -23,28 -35,42l2 0 -27 366 -20 -309c-16,21 -33,42 -49,64l-2 356 -42 -295c-19,26 -37,53 -55,80l13 307 -52 -249c-18,27 -35,55 -52,83l7 215 -42 -156c-29,50 -58,101 -86,155 25,-66 52,-125 80,-180l-7 -27 -162 6 207 -50c16,-28 32,-55 49,-81l-3 -14 -257 18 299 -62c17,-23 33,-46 50,-67l-297 2 332 -44c22,-26 43,-50 65,-73l-337 -21c-52,15 -104,28 -156,38 -53,288 -21,534 53,759l15 0 55 0 8 0c189,-107 351,-260 500,-433 -18,-184 -25,-368 -26,-551zm-670 218c-38,270 -26,529 38,766l-16 0 -55 0 -110 0 -55 0 -55 0 -55 0 -55 0 -55 0 -55 0 -165 -1 -19 0 0 0 15 -9 14 -10 13 -12 12 -13 10 -14 9 -15 7 -16 5 -17 3 -18 1 -18 -1 -18 -3 -18 -5 -17 -7 -16 -9 -15 -10 -14 -12 -13 -13 -12 -14 -10 -15 -9 -16 -8 -7 -3 1 0 15 -8 15 -9 14 -10 13 -12 11 -13 10 -14 9 -15 7 -16 5 -17 3 -18 1 -18 -1 -18 -3 -18 -5 -17 -7 -16 -9 -15 -10 -14 -11 -13 -13 -12 -14 -10 -5 -3 80 -75c189,-11 367,-47 573,-109zm-39 -679c-26,189 -50,378 -6,583 -152,90 -322,128 -509,115 148,-265 316,-502 515,-699zm631 0c-129,-13 -258,-26 -387,-38 2,-51 4,-103 6,-154 -64,34 -129,68 -193,103 -22,154 -28,302 -20,444l190 -9c20,-23 40,-45 59,-66l0 -14 -241 -28 288 -5c20,-19 39,-36 59,-53l-275 -50 314 18c25,-20 49,-38 74,-56l-308 -79 355 46c16,-11 31,-21 47,-32 -13,11 -26,22 -39,33l2 0 -90 334 36 -289c-19,16 -38,33 -56,50l-65 328 13 -280c-22,21 -44,42 -65,64l-42 286 -4 -239c-21,22 -42,45 -63,68l-32 200 -11 -152c-36,41 -72,84 -107,128 35,-56 71,-107 106,-153l-2 -26 -140 -22c6,96 19,188 39,278 193,-59 387,-144 580,-237 -17,-132 -26,-265 -26,-397zm103 -558c4,58 9,115 13,173 -41,100 -79,203 -103,321 -136,-11 -237,-21 -322,-32 55,-208 202,-356 412,-462zm1804 -263c9,-56 -39,-103 -122,-64 -94,169 -189,338 -283,506 135,-147 271,-295 406,-442zm361 788c319,-246 389,-437 322,-577 -110,-151 -337,-196 -618,-192 -172,161 -344,349 -515,596 -161,216 -322,432 -483,647 -78,69 -133,149 -90,269 308,-30 619,-72 857,90 -41,-91 -72,-188 -271,-192 -163,0 -326,0 -490,0 6,-155 188,-282 316,-417 312,-442 814,-510 973,-224zm-2941 831l-27 366 -20 -309c-16,21 -33,42 -49,64l-2 356 -42 -295c-19,26 -37,53 -55,80l13 307 -52 -249c-18,27 -35,55 -52,83l7 215 -42 -156c-29,50 -58,101 -86,155 25,-66 52,-125 80,-180l-7 -27 -162 6 208 -50c16,-28 32,-55 49,-81l-3 -14 -257 18 299 -62c17,-23 33,-46 50,-67l-297 2 332 -44c22,-26 43,-50 65,-73l-337 -21 379 -23c14,-14 28,-28 43,-42 -12,14 -23,28 -35,42l2 0zm-72 -647c-32,75 -39,150 5,226 -23,-75 -20,-150 -5,-226zm-76 103c-32,75 -39,150 5,226 -23,-75 -20,-150 -5,-226zm-80 94c-32,75 -39,150 5,226 -23,-75 -20,-150 -5,-226zm-66 89c-32,75 -39,150 5,226 -23,-75 -20,-150 -5,-226zm2342 2594l-212 300 212 -227c-1,26 -2,53 -3,80l-225 277 220 -201c-2,32 -5,64 -8,97l-206 230 199 -160c-4,32 -8,64 -12,97l-142 162 132 -95c-9,57 -20,115 -32,175 22,-67 39,-130 53,-190l23 -16 122 107 -129 -169c6,-32 10,-63 14,-93l12 -9 187 176 -192 -237c2,-29 3,-56 4,-84l229 189 -229 -243c0,-33 -2,-66 -4,-98l274 196 -279 -256c-2,-20 -4,-40 -6,-60 0,18 0,36 0,54l-1 -1zm947 2722l314 -215c-7,31 -15,63 -23,95l-341 272 317 -183c-11,37 -22,75 -34,113l-307 221 281 -139c-7,22 -15,44 -23,67 -46,10 -114,117 -333,316l314 -215c-7,31 -15,63 -23,95l-341 272 317 -183c-11,37 -22,75 -34,113l-307 221 281 -139c-12,37 -25,75 -39,113 -273,201 -76,69 -307,281l314 -215c-7,31 -15,63 -23,95l-341 272 317 -183c-11,37 -22,75 -34,113l-307 221 281 -139c-12,37 -26,75 -39,113l-212 157 183 -79c-25,66 -52,132 -82,200 44,-74 80,-145 111,-213l32 -14 122 159 -114 -235c15,-37 28,-73 40,-108l16 -8 183 259 -174 -332c10,-34 18,-66 25,-99l230 285 -217 -349c8,-40 14,-79 20,-118 125,134 156,167 284,305l-235 -323 -33 -67c15,-37 28,-73 40,-108l16 -8 183 259 -174 -332c10,-34 18,-67 25,-99l230 285 -217 -349c8,-40 14,-79 20,-118l284 305c-168,-231 -212,-360 -253,-393 13,-32 24,-63 34,-94l16 -8 183 259 -174 -332c10,-34 18,-66 25,-99l230 285 -217 -349c8,-40 14,-79 20,-118 165,118 198,154 339,305l-289 -323 -3 -104c16,-40 31,-79 44,-118l18 -9 237 389 -227 -469c11,-37 20,-73 28,-108l252 312 -237 -382c9,-44 15,-87 21,-129l311 333 -300 -414c3,-27 6,-53 8,-80 -5,24 -10,47 -15,71l-1 -2 -364 332 344 -236c-8,34 -17,69 -26,104l-374 297 347 -201c-12,41 -24,82 -37,124l-413 280 384 -191c-14,41 -28,82 -43,124 -299,221 -83,76 -333,315zm-1818 -2689c150,-38 228,48 297,151 -49,-69 -146,-122 -297,-151zm68 182c176,-18 280,71 335,235 -83,-126 -191,-210 -335,-235zm951 -348c101,30 152,101 152,212 -10,-91 -61,-162 -152,-212zm312 -1136c345,262 558,581 578,984 -74,-371 -281,-694 -578,-984zm502 -250c673,421 886,926 890,1469 -81,-640 -403,-1112 -890,-1469zm-113 1177c53,-144 35,-253 6,-356 14,119 20,238 -6,356zm-94 -145c53,-144 35,-253 6,-356 14,119 20,238 -6,356zm-106 -24c72,-195 47,-343 8,-483 20,161 27,322 -8,483zm-103 -112c72,-195 47,-343 8,-483 20,161 27,322 -8,483zm-112 -142c72,-195 47,-343 8,-483 20,161 27,322 -8,483zm385 -439c-149,18 -247,-44 -338,-118 109,61 219,110 338,118zm155 151c-149,18 -247,-44 -338,-118 109,61 219,110 338,118zm118 133c-149,18 -247,-44 -338,-118 109,61 219,110 338,118zm72 139c-150,2 -241,-71 -323,-154 101,72 206,133 323,154zm21 176c-147,-31 -219,-122 -281,-221 83,93 171,175 281,221zm-61 266c-89,-107 -82,-204 -63,-299 0,104 12,206 63,299zm294 -364c78,-144 52,-253 -3,-353 32,118 42,236 3,353zm92 118c71,-132 47,-232 -3,-323 29,108 38,215 3,323zm21 135c102,-110 103,-213 77,-314 2,112 -16,218 -77,314zm42 133c102,-110 103,-213 77,-314 2,112 -16,218 -77,314zm58 127c102,-110 103,-213 77,-314 2,112 -16,218 -77,314zm-308 -618c78,-144 52,-253 -3,-353 32,118 42,236 3,353zm-100 -100c78,-144 52,-253 -3,-353 32,118 42,236 3,353zm-107 -160c65,-121 43,-212 -3,-296 27,99 35,197 3,296zm-62 -87c38,-132 -3,-217 -66,-289 47,91 77,185 66,289zm-97 -72c38,-132 -3,-217 -66,-289 47,91 77,185 66,289zm395 -231c-127,53 -217,22 -296,-32 96,36 194,54 296,32zm118 97c-127,53 -217,22 -296,-32 96,36 194,54 296,32zm112 97c-127,53 -217,22 -296,-32 96,36 194,54 296,32zm106 109c-127,53 -217,22 -296,-32 96,36 194,54 296,32zm79 129c-135,27 -217,-21 -283,-90 87,55 179,92 283,90zm91 133c-135,27 -217,-21 -283,-90 87,55 179,92 283,90zm91 141c-137,10 -213,-47 -270,-123 80,65 167,112 270,123zm52 142c-137,10 -213,-47 -270,-123 80,65 167,112 270,123zm46 115c-137,10 -213,-47 -270,-123 80,65 167,112 270,123zm21 126c-137,-8 -204,-75 -251,-158 70,75 150,134 251,158zm-24 167c-129,-49 -172,-133 -192,-226 44,92 103,172 192,226zm493 350c41,667 -111,1306 56,1835 -103,-568 35,-1183 -56,-1835zm-20 406c-145,82 -253,239 -324,470 65,-178 173,-334 324,-470zm-16 215c-145,84 -234,253 -304,454 87,-165 185,-320 304,-454zm-4 195c-150,103 -217,273 -260,462 55,-159 141,-313 260,-462zm-4 191c-111,80 -184,212 -220,398 53,-133 124,-265 220,-398zm-8 195c-65,97 -135,188 -124,382 1,-127 59,-255 124,-382zm100 -1019c99,54 165,151 200,291 -53,-106 -115,-206 -200,-291zm12 203c138,62 181,174 180,310 -32,-117 -84,-225 -180,-310zm0 207c73,60 129,157 148,334 -28,-122 -77,-234 -148,-334zm-8 203c73,82 94,179 92,283 -26,-99 -55,-194 -92,-283zm-8 251c59,93 75,212 48,358 -6,-124 -21,-244 -48,-358zm-100 -856c-103,39 -180,166 -240,354 75,-123 154,-242 240,-354zm16 -231c-93,45 -173,123 -224,275 69,-115 145,-202 224,-275zm80 80c80,36 139,109 176,219 -59,-73 -117,-146 -176,-219zm-4655 -3981c270,29 504,-48 722,-173 823,-346 1288,-242 1714,-90 -21,56 -43,111 -64,167 -94,15 -189,30 -283,45 -243,-88 -490,-148 -767,-13 132,28 229,103 309,199 323,277 449,208 548,90 77,-193 137,-247 213,-269 -60,107 -146,248 -258,423 -113,281 -287,542 -503,788 -107,86 -230,111 -354,128 -21,-41 -43,-90 -64,-147 -7,52 -9,96 -1,128l-9 9 -278 17 247 16c-16,17 -32,35 -48,54l-243 32 218 -2c-12,16 -25,32 -37,49l-220 45 189 -14 2 11c-12,19 -24,39 -36,59l-152 36 119 -4 5 20c-20,40 -40,84 -59,132 21,-39 42,-77 63,-114l30 115 -5 -158c13,-21 26,-41 38,-61l38 183 -10 -226c13,-20 27,-39 41,-58l31 216 1 -261c12,-16 24,-31 36,-47l15 227 20 -269 -1 0 4 -5c12,46 44,68 103,54 60,-11 120,-21 180,-32 4,71 -2,141 -84,212 -158,124 -332,226 -541,282 -37,-182 -65,-365 -32,-564 183,-79 365,-194 548,-308 116,112 185,20 264,-32 -209,105 -242,-73 -193,-378 -34,126 -69,252 -103,378 -235,180 -411,280 -560,288 -47,-180 -34,-368 -13,-513 19,-98 64,-188 135,-269 127,-32 253,-64 380,-96 -151,27 -306,67 -438,38 0,-71 0,-141 0,-212 -170,38 -339,77 -509,115 -116,-81 -232,-162 -348,-244zm1322 516l-90 334 36 -289c-19,16 -38,33 -56,50l-65 328 13 -280c-22,21 -44,42 -65,64l-42 286 -4 -239c-21,22 -42,45 -63,68l-32 200 -11 -152c-36,41 -72,84 -107,128 35,-56 71,-107 106,-153l-2 -26 -151 -24 201 -9c20,-23 40,-45 59,-66l0 -14 -241 -28 288 -5c20,-19 39,-36 59,-53l-275 -50 314 18c25,-20 49,-38 74,-56l-308 -79 355 46c16,-11 31,-21 47,-32 -13,11 -26,22 -39,33l2 0zm681 -218c-72,-122 -82,-229 -38,-350 -140,-84 -351,-68 -581,-24l56 35c85,37 149,92 209,163 100,85 161,138 228,166l125 10zm53 -312c-12,-33 -58,-43 -72,5 -36,118 -15,204 38,283 54,38 92,8 72,-24 -67,-83 -73,-161 -38,-264zm29 -5c-18,56 -16,112 5,168 34,-66 80,-93 139,-82 -29,-61 -77,-90 -144,-86z"/>
   <path class="fil3" d="M6441 13602c4,65 8,129 13,191 25,314 69,599 143,837 75,-238 118,-523 143,-837 5,-63 9,-126 13,-191 -51,51 -103,102 -156,152 -53,-50 -105,-101 -156,-152zm-300 -311c-4,910 54,1771 456,2368 402,-596 460,-1458 456,-2368 -86,93 -173,184 -263,274 -4,79 -9,156 -15,231 -27,339 -76,646 -162,897l-17 49 -17 -49c-86,-250 -135,-557 -162,-897 -6,-75 -11,-153 -15,-231 -89,-90 -177,-181 -263,-274z"/>
   <g>
    <path class="fil3" d="M6436 1410l417 0c51,0 93,42 93,93l0 0c0,51 -42,93 -93,93l-417 0c-51,0 -93,-42 -93,-93l0 0c0,-51 42,-93 93,-93zm-109 2000l635 0c78,0 142,53 142,118l0 0c0,65 -64,118 -142,118l-635 0c-78,0 -142,-53 -142,-118l0 0c0,-65 64,-118 142,-118zm5 -302l626 0c77,0 140,53 140,118l0 0c0,65 -63,118 -140,118l-626 0c-77,0 -140,-53 -140,-118l0 0c0,-65 63,-118 140,-118zm30 -295l566 0c70,0 127,53 127,118l0 0c0,65 -57,118 -127,118l-566 0c-70,0 -127,-53 -127,-118l0 0c0,-65 57,-118 127,-118zm20 -309l526 0c65,0 118,53 118,118l0 0c0,65 -53,118 -118,118l-526 0c-65,0 -118,-53 -118,-118l0 0c0,-65 53,-118 118,-118zm15 -302l496 0c61,0 111,53 111,118l0 0c0,65 -50,118 -111,118l-496 0c-61,0 -111,-53 -111,-118l0 0c0,-65 50,-118 111,-118zm10 -288l477 0c59,0 107,45 107,100l0 0c0,55 -48,100 -107,100l-477 0c-59,0 -107,-45 -107,-100l0 0c0,-55 48,-100 107,-100zm15 -260l447 0c55,0 100,42 100,93l0 0c0,51 -45,93 -100,93l-447 0c-55,0 -100,-42 -100,-93l0 0c0,-51 45,-93 100,-93z"/>
    <path class="fil3" d="M6645 4315c-662,2 -1291,36 -1762,230 0,-273 0,-547 0,-820 587,-2 1174,-4 1762,-6 587,2 1174,4 1762,6 0,273 0,547 0,820 -470,-194 -1099,-228 -1762,-230zm-1619 -384c25,122 50,244 75,367 166,-216 732,-264 1358,-285 125,-4 248,-4 374,0 626,22 1191,69 1357,285 25,-122 50,-244 75,-367 -195,68 -431,95 -726,64l-711 -28c-135,-5 -238,-5 -374,0l-703 28c-295,32 -530,4 -726,-64zm3194 52c-19,72 -37,145 -56,217 -76,-64 -161,-107 -247,-131 117,-19 216,-47 303,-86zm-3149 0c19,72 37,145 56,217 76,-64 161,-107 247,-131 -117,-19 -216,-47 -303,-86z"/>
    <path class="fil3" d="M5927 729c68,-204 196,-343 404,-396 131,145 233,304 234,513 -44,19 -89,38 -133,57 -23,-168 -105,-269 -214,-339 76,110 138,224 149,356 -147,-30 -294,-106 -440,-190z"/>
    <path class="fil3" d="M7381 729c-68,-204 -196,-343 -404,-396 -131,145 -233,304 -234,513 44,19 89,38 133,57 23,-168 105,-269 214,-339 -76,110 -138,224 -149,356 147,-30 294,-106 440,-190z"/>
    <path class="fil3" d="M6654 275l295 45c-127,129 -220,288 -238,513l-57 -24 -57 24c-19,-226 -112,-384 -238,-513l295 -45z"/>
    <path class="fil3" d="M6653 839l-270 116c-185,-48 -353,-131 -517,-222 -36,146 -45,306 -16,485 185,29 369,68 553,129l250 34 0 -542zm18 539l234 -31c184,-61 369,-100 553,-129 29,-179 20,-338 -16,-485 -164,92 -332,174 -517,222l-254 -109 0 533z"/>
   </g>
   <path class="fil3" d="M6621 6436c-62,43 -129,61 -191,104 -60,10 -96,-65 -29,-108 78,-29 129,-54 108,-149 -11,-102 -100,-105 -141,-83 -29,28 -58,55 -87,83 -80,10 -55,-72 0,-108 47,-22 77,-55 91,-100 -23,-40 -20,-104 -149,-50 -41,-58 -87,-103 -162,-50 -112,58 -158,39 -137,-58 -54,-3 -91,-28 -112,-75 51,-14 86,-39 104,-75 -93,-35 -156,-83 -149,-162 15,-36 79,-21 149,-12 -82,-72 -113,-144 -95,-216 108,88 202,188 369,228 -53,126 61,262 207,166 72,-138 19,-235 -83,-241 -24,-6 -47,-17 -71,-33 -10,-41 3,-66 37,-75 -72,-77 -83,-138 -33,-183 46,-17 86,0 120,50 66,-105 281,27 46,137 81,27 154,78 210,183 56,-104 129,-156 210,-183 -159,-31 -72,-260 41,-137 35,-50 75,-66 120,-50 50,44 39,105 -33,183 35,8 47,33 37,75 -24,17 -47,28 -71,33 -102,6 -155,102 -83,241 147,96 261,-40 207,-166 167,-41 261,-140 369,-228 18,72 -14,144 -95,216 71,-8 134,-24 149,12 6,79 -56,127 -149,162 18,36 53,61 104,75 -21,47 -58,72 -112,75 21,97 -25,116 -137,58 -75,-53 -120,-8 -162,50 -129,-54 -126,10 -149,50 14,44 44,77 91,100 55,36 80,118 0,108 -29,-28 -58,-55 -87,-83 -41,-22 -130,-19 -141,83 -21,95 30,120 108,149 67,43 31,118 -29,108 -62,-43 -129,-61 -191,-104zm-159 -1235c-14,-33 -21,-67 -20,-100 -10,-86 112,-136 178,-25 66,-111 188,-61 178,25 1,28 -4,55 -13,83 -23,68 -38,57 -104,57l-148 0c-47,0 -52,6 -72,-39zm159 1082c-148,-91 -234,-226 -232,-427 104,-30 182,-89 232,-174 51,86 128,144 232,174 2,201 -85,337 -232,427zm0 -59c-119,-73 -188,-182 -187,-343 84,-24 146,-71 187,-140 41,69 103,116 187,140 2,162 -68,271 -187,343zm-2027 64l901 233 -53 95 3275 1823 -1812 954 -21 11 -258 -137 1582 -839 -2883 -1621 -117 138 -615 -657zm1974 3281l-1063 556 1738 1017 106 -106 498 540 -774 -106 53 -138 -2077 -1229 1261 -669 257 134zm2032 -3281l-901 233 53 95 -1128 628 235 131 1009 -568 117 138 615 -657zm-2265 1118l-1857 1034 1812 954 1399 731 -1065 624 217 127 1304 -772 -3158 -1674 1584 -891 -235 -132zm19 3500l-403 236 -106 -106 -498 540 774 -106 -53 -138 504 -298 -217 -129zm131 -543l137 0 137 0c36,0 66,30 66,66l0 0c0,36 -30,66 -66,66l-137 0 -137 0c-36,0 -66,-30 -66,-66l0 0c0,-36 30,-66 66,-66zm137 -3572c84,11 138,1 149,-38 37,-152 -74,-186 -149,-248 -76,62 -186,95 -149,248 11,39 65,49 149,38zm0 3730l94 0c0,5 0,10 0,15 1,42 2,83 3,125l-121 71 -72 -42c1,-51 2,-102 3,-154 0,-5 0,-10 0,-15l94 0zm97 600c-3,295 -8,590 0,884 160,7 176,190 0,185 122,103 120,369 -97,425 -218,-56 -219,-322 -97,-425 -176,5 -160,-178 0,-185 9,-304 3,-609 0,-913l73 -43 122 72zm-97 -2282l151 0c2,0 3,0 5,0 3,12 7,25 10,37 -33,80 -64,163 -59,308l-130 69 0 0 -82 -44c9,-161 -23,-249 -58,-333 3,-12 7,-25 10,-37 2,0 3,0 5,0l151 0zm177 850c-3,93 -26,188 -69,286 0,7 0,14 -1,21l-6 6 -14 17 -2 3 -1 -2 -5 -16 -5 -16 -6 -16 -6 -16 -7 -15 -7 -15 -8 -15 -8 -15 -8 -15 -8 -15 -8 -14 -7 -13 -7 13 -8 14 -8 15 -8 15 -8 15 -8 15 -7 15 -7 15 -6 16 -6 16 -5 16 -5 16 -1 2 -2 -3 -14 -17 -6 -6c0,-7 0,-14 -1,-21 -47,-107 -70,-210 -70,-312l153 -80 101 53 0 0 101 53zm-177 -2732l94 0c0,69 0,137 0,206l-118 66 -69 -38c0,-77 0,-155 0,-233l94 0zm94 662c0,329 0,656 0,989 2,9 5,18 7,27l-101 0 -101 0c2,-9 5,-18 7,-27 0,-342 0,-679 0,-1017l69 -39 118 66zm19 -807l-112 0 -112 0c-32,0 -59,27 -59,59l0 0c0,32 26,59 59,59l112 0 112 0c32,0 59,-27 59,-59l0 0c0,-32 -26,-59 -59,-59zm38 1859l-151 0 -151 0c-36,0 -66,30 -66,66l0 0c0,36 30,66 66,66l151 0 151 0c36,0 66,-30 66,-66l0 0c0,-36 -30,-66 -66,-66zm-151 1220c35,63 64,127 71,199 62,-110 142,-154 240,-131 -70,62 -129,125 -113,200 9,51 3,105 -36,168 -54,0 -108,0 -162,0 -54,0 -108,0 -162,0 -39,-63 -45,-117 -36,-168 15,-74 -44,-138 -113,-200 98,-23 178,21 240,131 7,-72 36,-137 71,-199z"/>
   <line class="fil6" x1="6597" y1="9252" x2="6597" y2= "9252" />
   <path class="fil5" d="M6773 8803l0 0c0,0 0,0 0,0z"/>
  </g>
 </g>
</svg>
