<?xml version="1.0" encoding="UTF-8"?>
<svg id="_Слой_2" data-name="Слой 2" xmlns="http://www.w3.org/2000/svg" viewBox="0 0 311.56 314.5">
  <g id="_Слой_1-2" data-name="Слой 1">
    <g>
      <path d="M152.97,137.72c-3.3,.4-17.7,.9-32,.9-34.9,.2-36.8,.7-38.1,8.7l-.6,4.1,6.7,2.4c4.2,1.5,7.6,3.4,9.1,5.2l2.5,3-.3,63.6c-.3,73.8,.4,68.3-10.5,73.6l-6.3,3,.3,4.5c.2,4.1,.5,4.5,3.2,5.1,1.7,.4,12.9,.7,25,.8,12.1,0,28.6,.6,36.8,1.3,41.1,3.4,72.8-8.3,83.9-31,3-6,3.3-7.5,3.3-15.7,0-22.2-11-37.8-32-45.2-4.1-1.5-7.5-3-7.5-3.4s1.3-1.2,3-1.7c5.4-1.9,14.7-9.1,18.5-14.1,5.2-7.2,7.7-15,7.7-24.1,0-18.7-10.8-30.8-33.2-37.3-14-4.1-26.7-5.2-39.5-3.7Zm19.1,20.4c6,2.8,12,8.5,14,13.2,5.3,12.6-3.7,32.5-16.3,36.2-2.1,.6-10.1,1.2-17.8,1.3l-14,.3-.3-23.3-.2-23.3,3.4-3.4,3.4-3.4h11.4c9.8,0,12,.3,16.4,2.4Zm2.1,75.2c11.3,3.8,18.2,11.6,20.3,22.9,1.6,8.3,.6,15.5-3.2,23.3-5.4,11.4-14.3,15.9-33.3,16.8-9.4,.5-11.5,.3-14.5-1.3-5.5-2.8-5.9-5.3-5.9-36.1l-.1-27.2h16c12.1,0,17.1,.4,20.7,1.6Z"/>
      <path d="M138.72,1.42c-23.8,5.2-42.3,24.4-46.9,48.8l-1.6,8.4-7.1-3.8c-30-16.2-65.1-6.1-78.6,22.6C-4.38,96.32,.22,120.72,15.22,133.92c6.7,5.9,13.8,8.5,22.9,8.5,10.2,0,17.8-3.3,23-10.2,3.2-4.2,6.2-10.9,5.3-11.9-.3-.2-1.9,.3-3.7,1.2-2.4,1.2-4.7,1.5-8.4,1-20-2.3-27.6-23.2-13.3-36.4,9.8-9,22.3-6.5,42,8.3,13.5,10.1,19.6,13.4,29.6,16,16.8,4.4,36.8-1.6,43.5-13,2.9-4.8,4.9-13.6,4.1-17.1l-.7-2.5-4.4,3.9c-5.1,4.5-9.1,5.6-14.5,4.2-5-1.3-8.6-4.3-11.3-9.3-3.2-6-3.2-21.3,0-27.3,2.7-5,7.5-9.3,13.9-12.5,6.6-3.2,17-3.3,23.1-.1,11.9,6.2,19.3,20.6,19.3,37.8,0,15.5-5.5,26.9-19.4,40.3l-7.7,7.4,11.8-.6c25.2-1.2,38.4-7.3,61.2-28,10.8-9.8,18.2-13.9,26.1-14.5,4.9-.4,6,0,10.5,3,7,4.7,10.9,12.2,10.1,19.6-1.8,15.5-15.8,25.2-30.1,20.8-2.7-.8-5.1-1.4-5.3-1.2-.7,.8,4,8.8,7.4,12.6,5.5,6.1,11.3,8.4,20.9,8.4,6.9,0,9-.4,14.8-3.2,12.5-5.8,21.1-16.2,24.2-29.3,4.1-17.6-.6-34.1-13.4-46.8-20.4-20.3-50-22.1-74.2-4.5-2.6,1.9-4.9,3.4-5.1,3.4-.3,0-.8-2.6-1.1-5.8-2.2-20.4-15.8-40.2-33.8-49.1C169.02,.32,153.12-1.68,138.72,1.42Z"/>
    </g>
  </g>
</svg>